SplineFontDB: 3.0
FontName: Monda-Medium
FullName: Monda Medium
FamilyName: Monda
Weight: Book
Version: 1.000;PS (version unavailable);hotconv 1.0.57;makeotf.lib2.0.21895 DEVELOPMENT
ItalicAngle: 0
UnderlinePosition: 0
UnderlineWidth: 0
Ascent: 1638
Descent: 410
sfntRevision: 0x00010000
LayerCount: 2
Layer: 0 1 "Back"  1
Layer: 1 1 "Fore"  0
XUID: [1021 332 1330122705 16443293]
FSType: 0
OS2Version: 4
OS2_WeightWidthSlopeOnly: 0
OS2_UseTypoMetrics: 1
CreationTime: 1353114919
ModificationTime: 1353196724
PfmFamily: 17
TTFWeight: 400
TTFWidth: 5
LineGap: 0
VLineGap: 0
Panose: 2 0 6 3 0 0 0 0 0 0
OS2TypoAscent: 1946
OS2TypoAOffset: 0
OS2TypoDescent: -695
OS2TypoDOffset: 0
OS2TypoLinegap: 0
OS2WinAscent: 1946
OS2WinAOffset: 0
OS2WinDescent: 695
OS2WinDOffset: 0
HheadAscent: 1946
HheadAOffset: 0
HheadDescent: -695
HheadDOffset: 0
OS2SubXSize: 1331
OS2SubYSize: 1433
OS2SubXOff: 0
OS2SubYOff: 286
OS2SupXSize: 1331
OS2SupYSize: 1433
OS2SupXOff: 0
OS2SupYOff: 983
OS2StrikeYSize: 102
OS2StrikeYPos: 530
OS2Vendor: 'newt'
OS2CodePages: 00000001.00000000
OS2UnicodeRanges: a00000ef.4000204b.00000000.00000000
Lookup: 258 0 0 "'kern' Horizontal Kerning in Latin lookup 0"  {"'kern' Horizontal Kerning in Latin lookup 0 subtable"  } ['kern' ('latn' <'dflt' > ) ]
MarkAttachClasses: 1
DEI: 91125
ShortTable: cvt  2
  68
  1297
EndShort
ShortTable: maxp 16
  1
  0
  429
  628
  37
  81
  4
  2
  0
  1
  1
  0
  64
  0
  2
  1
EndShort
LangName: 1033 "" "" "" "1.000;newt;Monda-Medium" "" "Version 1.000;PS (version unavailable);hotconv 1.0.57;makeotf.lib2.0.21895 DEVELOPMENT" "" "" "" "" "" "" "" "Copyright (c) 2012, vern (<URL|email>),+AAoA-with Reserved Font Name Monda Medium.+AAoACgAA-This Font Software is licensed under the SIL Open Font License, Version 1.1.+AAoA-This license is copied below, and is also available with a FAQ at:+AAoA-http://scripts.sil.org/OFL" "http://scripts.sil.org/OFL" 
GaspTable: 1 65535 2 0
Encoding: UnicodeBmp
Compacted: 1
UnicodeInterp: none

StartChar: .notdef
Encoding: 65536 -1 0
Width: 748
Flags: W
LayerCount: 2
Fore
SplineSet
136 68 m 1,0,-1
 544 68 l 1,1,-1
 544 1297 l 1,2,-1
 136 1297 l 1,3,-1
 136 68 l 1,0,-1
68 0 m 1,4,-1
 68 1365 l 1,5,-1
 612 1365 l 1,6,-1
 612 0 l 1,7,-1
 68 0 l 1,4,-1
EndSplineSet
EndChar

StartChar: exclam
Encoding: 33 33 4
Width: 680
Flags: W
LayerCount: 2
Fore
SplineSet
242 206 m 1,0,-1
 447 206 l 1,1,-1
 447 0 l 1,2,-1
 242 0 l 1,3,-1
 242 206 l 1,0,-1
249 1446 m 1,4,-1
 451 1446 l 1,5,6
 451 1274 451 1274 431.5 1005.5 c 128,-1,7
 412 737 412 737 392 554 c 2,8,-1
 372 371 l 1,9,-1
 316 371 l 1,10,11
 249 1061 249 1061 249 1446 c 1,4,-1
EndSplineSet
EndChar

StartChar: quotedbl
Encoding: 34 34 5
Width: 752
Flags: W
LayerCount: 2
Fore
SplineSet
630 1446 m 1,0,-1
 561 870 l 1,1,-1
 489 870 l 1,2,-1
 425 1446 l 1,3,-1
 630 1446 l 1,0,-1
327 1446 m 1,4,-1
 258 870 l 1,5,-1
 186 870 l 1,6,-1
 122 1446 l 1,7,-1
 327 1446 l 1,4,-1
EndSplineSet
EndChar

StartChar: numbersign
Encoding: 35 35 6
Width: 1504
Flags: W
LayerCount: 2
Fore
SplineSet
964 910 m 1,0,-1
 599 910 l 1,1,-1
 543 594 l 1,2,-1
 907 594 l 1,3,-1
 964 910 l 1,0,-1
438 -1 m 1,4,-1
 260 -1 l 1,5,-1
 347 475 l 1,6,-1
 111 475 l 1,7,-1
 111 594 l 1,8,-1
 369 594 l 1,9,-1
 426 910 l 1,10,-1
 135 910 l 1,11,-1
 135 1029 l 1,12,-1
 448 1029 l 1,13,-1
 524 1446 l 1,14,-1
 694 1446 l 1,15,-1
 620 1029 l 1,16,-1
 986 1029 l 1,17,-1
 1062 1446 l 1,18,-1
 1232 1446 l 1,19,-1
 1158 1029 l 1,20,-1
 1403 1029 l 1,21,-1
 1403 910 l 1,22,-1
 1137 910 l 1,23,-1
 1081 594 l 1,24,-1
 1379 594 l 1,25,-1
 1379 475 l 1,26,-1
 1060 475 l 1,27,-1
 976 -1 l 1,28,-1
 798 -1 l 1,29,-1
 885 475 l 1,30,-1
 522 475 l 1,31,-1
 438 -1 l 1,4,-1
EndSplineSet
EndChar

StartChar: dollar
Encoding: 36 36 7
Width: 1303
Flags: W
LayerCount: 2
Fore
SplineSet
152 209 m 1,0,-1
 239 338 l 1,1,2
 287 288 287 288 343 247 c 0,3,4
 398 206 398 206 488 172 c 0,5,6
 553 147 553 147 620 141 c 1,7,-1
 620 682 l 1,8,-1
 487 740 l 2,9,10
 428 766 428 766 387 787.5 c 128,-1,11
 346 809 346 809 301.5 842.5 c 128,-1,12
 257 876 257 876 231 912.5 c 128,-1,13
 205 949 205 949 189.5 1002 c 128,-1,14
 174 1055 174 1055 176 1118 c 0,15,16
 179 1193 179 1193 206 1254 c 128,-1,17
 233 1315 233 1315 278 1356.5 c 128,-1,18
 323 1398 323 1398 384 1426.5 c 128,-1,19
 445 1455 445 1455 514 1468 c 0,20,21
 565 1478 565 1478 620 1480 c 1,22,-1
 620 1638 l 1,23,-1
 730 1638 l 1,24,-1
 730 1479 l 1,25,26
 867 1470 867 1470 967 1422 c 0,27,28
 1092 1363 1092 1363 1151 1284 c 1,29,-1
 1061 1159 l 1,30,31
 943 1303 943 1303 730 1323 c 1,32,-1
 730 832 l 1,33,-1
 850 780 l 2,34,35
 910 754 910 754 951.5 732.5 c 128,-1,36
 993 711 993 711 1039.5 676 c 128,-1,37
 1086 641 1086 641 1113.5 602 c 128,-1,38
 1141 563 1141 563 1159 506 c 128,-1,39
 1177 449 1177 449 1175 380 c 0,40,41
 1171 190 1171 190 1033 82 c 0,42,43
 915 -10 915 -10 730 -22 c 1,44,-1
 730 -242 l 1,45,-1
 620 -242 l 1,46,-1
 620 -21 l 1,47,48
 488 -10 488 -10 370 44 c 0,49,50
 232 106 232 106 152 209 c 1,0,-1
620 1324 m 1,51,52
 518 1316 518 1316 456 1275 c 0,53,54
 380 1223 380 1223 372 1137 c 0,55,56
 366 1059 366 1059 402 1009 c 128,-1,57
 438 959 438 959 549 911 c 2,58,-1
 620 880 l 1,59,-1
 620 1324 l 1,51,52
730 140 m 1,60,61
 832 148 832 148 894 188 c 0,62,63
 974 238 974 238 983 352 c 0,64,65
 991 449 991 449 945.5 505 c 128,-1,66
 900 561 900 561 773 616 c 2,67,-1
 730 635 l 1,68,-1
 730 140 l 1,60,61
EndSplineSet
EndChar

StartChar: percent
Encoding: 37 37 8
Width: 2107
Flags: W
LayerCount: 2
Fore
SplineSet
1456 343 m 2,0,1
 1456 296 1456 296 1459 263 c 128,-1,2
 1462 230 1462 230 1471 196.5 c 128,-1,3
 1480 163 1480 163 1496.5 142.5 c 128,-1,4
 1513 122 1513 122 1542 109.5 c 128,-1,5
 1571 97 1571 97 1611 97 c 128,-1,6
 1651 97 1651 97 1680 109.5 c 128,-1,7
 1709 122 1709 122 1726 142.5 c 128,-1,8
 1743 163 1743 163 1752.5 196 c 128,-1,9
 1762 229 1762 229 1765 262.5 c 128,-1,10
 1768 296 1768 296 1768 343 c 2,11,-1
 1768 436 l 2,12,13
 1768 483 1768 483 1765.5 513.5 c 128,-1,14
 1763 544 1763 544 1754 576.5 c 128,-1,15
 1745 609 1745 609 1728.5 627 c 128,-1,16
 1712 645 1712 645 1682.5 656.5 c 128,-1,17
 1653 668 1653 668 1611 668 c 128,-1,18
 1569 668 1569 668 1540 656.5 c 128,-1,19
 1511 645 1511 645 1494.5 627 c 128,-1,20
 1478 609 1478 609 1469.5 577 c 128,-1,21
 1461 545 1461 545 1458.5 515 c 128,-1,22
 1456 485 1456 485 1456 438 c 2,23,-1
 1456 343 l 2,0,1
1313 360 m 2,24,-1
 1313 413 l 2,25,26
 1313 599 1313 599 1379.5 691.5 c 128,-1,27
 1446 784 1446 784 1611 784 c 0,28,29
 1696 784 1696 784 1755 759.5 c 128,-1,30
 1814 735 1814 735 1848 685.5 c 128,-1,31
 1882 636 1882 636 1897 570.5 c 128,-1,32
 1912 505 1912 505 1913 414 c 1,33,-1
 1913 360 l 2,34,35
 1913 176 1913 176 1844 78.5 c 128,-1,36
 1775 -19 1775 -19 1611 -19 c 0,37,38
 1448 -19 1448 -19 1380.5 78.5 c 128,-1,39
 1313 176 1313 176 1313 360 c 2,24,-1
1248 1446 m 1,40,-1
 1397 1446 l 1,41,-1
 859 0 l 1,42,-1
 705 0 l 1,43,-1
 1248 1446 l 1,40,-1
209 1037 m 2,44,-1
 209 1090 l 2,45,46
 209 1276 209 1276 275.5 1368.5 c 128,-1,47
 342 1461 342 1461 507 1461 c 0,48,49
 592 1461 592 1461 651 1436.5 c 128,-1,50
 710 1412 710 1412 744 1362.5 c 128,-1,51
 778 1313 778 1313 793 1247.5 c 128,-1,52
 808 1182 808 1182 809 1091 c 1,53,-1
 809 1037 l 2,54,55
 809 853 809 853 740 755.5 c 128,-1,56
 671 658 671 658 507 658 c 0,57,58
 344 658 344 658 276.5 755.5 c 128,-1,59
 209 853 209 853 209 1037 c 2,44,-1
352 1020 m 2,60,61
 352 973 352 973 355 940 c 128,-1,62
 358 907 358 907 367 873.5 c 128,-1,63
 376 840 376 840 392.5 819.5 c 128,-1,64
 409 799 409 799 438 786.5 c 128,-1,65
 467 774 467 774 507 774 c 128,-1,66
 547 774 547 774 576 786.5 c 128,-1,67
 605 799 605 799 622 819.5 c 128,-1,68
 639 840 639 840 648.5 873 c 128,-1,69
 658 906 658 906 661 939.5 c 128,-1,70
 664 973 664 973 664 1020 c 2,71,-1
 664 1113 l 2,72,73
 664 1160 664 1160 661.5 1190.5 c 128,-1,74
 659 1221 659 1221 650 1253.5 c 128,-1,75
 641 1286 641 1286 624.5 1304 c 128,-1,76
 608 1322 608 1322 578.5 1333.5 c 128,-1,77
 549 1345 549 1345 507 1345 c 128,-1,78
 465 1345 465 1345 436 1333.5 c 128,-1,79
 407 1322 407 1322 390.5 1304 c 128,-1,80
 374 1286 374 1286 365.5 1254 c 128,-1,81
 357 1222 357 1222 354.5 1192 c 128,-1,82
 352 1162 352 1162 352 1115 c 2,83,-1
 352 1020 l 2,60,61
EndSplineSet
EndChar

StartChar: quotesingle
Encoding: 39 39 10
Width: 583
Flags: W
LayerCount: 2
Fore
SplineSet
414 1446 m 1,0,-1
 345 870 l 1,1,-1
 273 870 l 1,2,-1
 209 1446 l 1,3,-1
 414 1446 l 1,0,-1
EndSplineSet
EndChar

StartChar: parenleft
Encoding: 40 40 11
Width: 575
Flags: W
LayerCount: 2
Fore
SplineSet
527 131 m 1,0,-1
 527 -53 l 1,1,2
 444 -53 444 -53 379.5 -23 c 128,-1,3
 315 7 315 7 273.5 49.5 c 128,-1,4
 232 92 232 92 203 166.5 c 128,-1,5
 174 241 174 241 160 299.5 c 128,-1,6
 146 358 146 358 138.5 453 c 128,-1,7
 131 548 131 548 130 598.5 c 128,-1,8
 129 649 129 649 129 738 c 0,9,10
 129 754 129 754 129 762 c 128,-1,11
 129 770 129 770 129 786 c 0,12,13
 129 875 129 875 130 925.5 c 128,-1,14
 131 976 131 976 138.5 1071 c 128,-1,15
 146 1166 146 1166 160 1225 c 128,-1,16
 174 1284 174 1284 203 1358.5 c 128,-1,17
 232 1433 232 1433 273.5 1475.5 c 128,-1,18
 315 1518 315 1518 379.5 1548 c 128,-1,19
 444 1578 444 1578 527 1578 c 1,20,-1
 527 1394 l 1,21,22
 495 1394 495 1394 469 1377 c 128,-1,23
 443 1360 443 1360 426.5 1328 c 128,-1,24
 410 1296 410 1296 397.5 1257 c 128,-1,25
 385 1218 385 1218 378.5 1168.5 c 128,-1,26
 372 1119 372 1119 368.5 1074 c 128,-1,27
 365 1029 365 1029 364.5 977 c 128,-1,28
 364 925 364 925 364.5 888.5 c 128,-1,29
 365 852 365 852 366 813.5 c 128,-1,30
 367 775 367 775 367 762 c 128,-1,31
 367 749 367 749 366 710.5 c 128,-1,32
 365 672 365 672 364.5 636 c 128,-1,33
 364 600 364 600 364.5 548 c 128,-1,34
 365 496 365 496 368.5 451 c 128,-1,35
 372 406 372 406 378.5 356.5 c 128,-1,36
 385 307 385 307 397.5 268 c 128,-1,37
 410 229 410 229 426.5 197 c 128,-1,38
 443 165 443 165 469 148 c 128,-1,39
 495 131 495 131 527 131 c 1,0,-1
EndSplineSet
EndChar

StartChar: parenright
Encoding: 41 41 12
Width: 575
Flags: W
LayerCount: 2
Fore
SplineSet
91 -53 m 1,0,-1
 91 131 l 1,1,2
 123 131 123 131 148.5 148 c 128,-1,3
 174 165 174 165 191 197 c 128,-1,4
 208 229 208 229 220.5 267.5 c 128,-1,5
 233 306 233 306 239.5 356 c 128,-1,6
 246 406 246 406 250 451 c 128,-1,7
 254 496 254 496 254.5 548 c 128,-1,8
 255 600 255 600 254.5 636 c 128,-1,9
 254 672 254 672 253 711 c 128,-1,10
 252 750 252 750 252 762 c 128,-1,11
 252 774 252 774 253 813 c 128,-1,12
 254 852 254 852 254.5 888 c 128,-1,13
 255 924 255 924 254.5 976 c 128,-1,14
 254 1028 254 1028 250 1073.5 c 128,-1,15
 246 1119 246 1119 239.5 1168.5 c 128,-1,16
 233 1218 233 1218 220.5 1257 c 128,-1,17
 208 1296 208 1296 191 1328 c 128,-1,18
 174 1360 174 1360 148.5 1377 c 128,-1,19
 123 1394 123 1394 91 1394 c 1,20,-1
 91 1578 l 1,21,22
 174 1578 174 1578 239 1548 c 128,-1,23
 304 1518 304 1518 345 1475.5 c 128,-1,24
 386 1433 386 1433 415.5 1357.5 c 128,-1,25
 445 1282 445 1282 459 1223.5 c 128,-1,26
 473 1165 473 1165 480.5 1069.5 c 128,-1,27
 488 974 488 974 489 923.5 c 128,-1,28
 490 873 490 873 490 784 c 0,29,30
 490 769 490 769 490 762 c 128,-1,31
 490 755 490 755 490 740 c 0,32,33
 490 651 490 651 489 600.5 c 128,-1,34
 488 550 488 550 480.5 455 c 128,-1,35
 473 360 473 360 459 301 c 128,-1,36
 445 242 445 242 415.5 167 c 128,-1,37
 386 92 386 92 345 49.5 c 128,-1,38
 304 7 304 7 239 -23 c 128,-1,39
 174 -53 174 -53 91 -53 c 1,0,-1
EndSplineSet
EndChar

StartChar: asterisk
Encoding: 42 42 13
Width: 1132
Flags: W
LayerCount: 2
Fore
SplineSet
477 1446 m 1,0,-1
 655 1446 l 1,1,-1
 625 1121 l 1,2,-1
 898 1295 l 1,3,-1
 979 1134 l 1,4,-1
 688 1017 l 1,5,-1
 968 875 l 1,6,-1
 873 722 l 1,7,-1
 626 912 l 1,8,-1
 655 599 l 1,9,-1
 477 599 l 1,10,-1
 506 924 l 1,11,-1
 233 750 l 1,12,-1
 153 911 l 1,13,-1
 443 1028 l 1,14,-1
 163 1170 l 1,15,-1
 258 1323 l 1,16,-1
 505 1133 l 1,17,-1
 477 1446 l 1,0,-1
EndSplineSet
EndChar

StartChar: plus
Encoding: 43 43 14
Width: 942
Flags: W
LayerCount: 2
Fore
SplineSet
547 968 m 1,0,-1
 547 642 l 1,1,-1
 822 642 l 1,2,-1
 822 494 l 1,3,-1
 547 494 l 1,4,-1
 547 156 l 1,5,-1
 396 156 l 1,6,-1
 396 494 l 1,7,-1
 120 494 l 1,8,-1
 120 642 l 1,9,-1
 396 642 l 1,10,-1
 396 968 l 1,11,-1
 547 968 l 1,0,-1
EndSplineSet
EndChar

StartChar: comma
Encoding: 44 44 15
Width: 495
Flags: W
LayerCount: 2
Fore
SplineSet
135 211 m 1,0,-1
 369 211 l 1,1,-1
 369 50 l 2,2,3
 369 -79 369 -79 322 -183 c 128,-1,4
 275 -287 275 -287 220 -338 c 1,5,-1
 139 -294 l 1,6,7
 184 -241 184 -241 218.5 -165 c 128,-1,8
 253 -89 253 -89 253 0 c 1,9,-1
 135 0 l 1,10,-1
 135 211 l 1,0,-1
EndSplineSet
EndChar

StartChar: hyphen
Encoding: 45 45 16
Width: 942
Flags: W
LayerCount: 2
Fore
SplineSet
822 642 m 1,0,-1
 822 494 l 1,1,-1
 120 494 l 1,2,-1
 120 642 l 1,3,-1
 822 642 l 1,0,-1
EndSplineSet
EndChar

StartChar: period
Encoding: 46 46 17
Width: 481
Flags: W
LayerCount: 2
Fore
SplineSet
141 206 m 1,0,-1
 346 206 l 1,1,-1
 346 0 l 1,2,-1
 141 0 l 1,3,-1
 141 206 l 1,0,-1
EndSplineSet
EndChar

StartChar: slash
Encoding: 47 47 18
Width: 979
Flags: W
LayerCount: 2
Fore
SplineSet
665 1446 m 1,0,-1
 858 1446 l 1,1,-1
 320 0 l 1,2,-1
 125 0 l 1,3,-1
 665 1446 l 1,0,-1
EndSplineSet
EndChar

StartChar: zero
Encoding: 48 48 19
Width: 1386
Flags: W
LayerCount: 2
Fore
SplineSet
702 -24 m 0,0,1
 601 -24 601 -24 521 -9.5 c 128,-1,2
 441 5 441 5 385.5 29.5 c 128,-1,3
 330 54 330 54 290 94.5 c 128,-1,4
 250 135 250 135 227 176.5 c 128,-1,5
 204 218 204 218 191 277.5 c 128,-1,6
 178 337 178 337 174 390.5 c 128,-1,7
 170 444 170 444 170 516 c 2,8,-1
 170 925 l 2,9,10
 170 998 170 998 174 1052.5 c 128,-1,11
 178 1107 178 1107 191 1168.5 c 128,-1,12
 204 1230 204 1230 226.5 1273.5 c 128,-1,13
 249 1317 249 1317 289 1359 c 128,-1,14
 329 1401 329 1401 384.5 1426.5 c 128,-1,15
 440 1452 440 1452 520 1467.5 c 128,-1,16
 600 1483 600 1483 702 1483 c 0,17,18
 800 1483 800 1483 877.5 1467 c 128,-1,19
 955 1451 955 1451 1008.5 1424 c 128,-1,20
 1062 1397 1062 1397 1100.5 1354 c 128,-1,21
 1139 1311 1139 1311 1161 1266 c 128,-1,22
 1183 1221 1183 1221 1195.5 1158.5 c 128,-1,23
 1208 1096 1208 1096 1212 1040.5 c 128,-1,24
 1216 985 1216 985 1216 912 c 2,25,-1
 1216 530 l 2,26,27
 1216 459 1216 459 1212 405 c 128,-1,28
 1208 351 1208 351 1195 290.5 c 128,-1,29
 1182 230 1182 230 1160 186.5 c 128,-1,30
 1138 143 1138 143 1099.5 101 c 128,-1,31
 1061 59 1061 59 1007.5 33 c 128,-1,32
 954 7 954 7 876.5 -8.5 c 128,-1,33
 799 -24 799 -24 702 -24 c 0,0,1
702 126 m 0,34,35
 799 126 799 126 860 145 c 128,-1,36
 921 164 921 164 955.5 210 c 128,-1,37
 990 256 990 256 1002.5 320 c 128,-1,38
 1015 384 1015 384 1015 485 c 2,39,-1
 1015 962 l 2,40,41
 1015 1064 1015 1064 1002 1129.5 c 128,-1,42
 989 1195 989 1195 954.5 1242.5 c 128,-1,43
 920 1290 920 1290 859 1311 c 128,-1,44
 798 1332 798 1332 702 1332 c 0,45,46
 516 1332 516 1332 444 1246 c 128,-1,47
 372 1160 372 1160 372 962 c 2,48,-1
 372 485 l 2,49,50
 372 288 372 288 443 207 c 128,-1,51
 514 126 514 126 702 126 c 0,34,35
EndSplineSet
EndChar

StartChar: one
Encoding: 49 49 20
Width: 1184
Flags: W
LayerCount: 2
Fore
SplineSet
592 155 m 1,0,-1
 592 1277 l 1,1,-1
 218 1237 l 1,2,-1
 200 1396 l 1,3,-1
 629 1446 l 1,4,-1
 793 1446 l 1,5,-1
 793 155 l 1,6,-1
 1147 155 l 1,7,-1
 1147 0 l 1,8,-1
 191 0 l 1,9,-1
 191 155 l 1,10,-1
 592 155 l 1,0,-1
EndSplineSet
EndChar

StartChar: two
Encoding: 50 50 21
Width: 1419
Flags: W
LayerCount: 2
Fore
SplineSet
229 0 m 1,0,-1
 210 158 l 1,1,-1
 807 715 l 2,2,3
 929 828 929 828 971.5 905 c 128,-1,4
 1014 982 1014 982 1006 1095 c 0,5,6
 998 1211 998 1211 924 1278 c 128,-1,7
 850 1345 850 1345 718 1345 c 0,8,9
 635 1345 635 1345 573 1330 c 128,-1,10
 511 1315 511 1315 462 1281 c 128,-1,11
 413 1247 413 1247 388 1186.5 c 128,-1,12
 363 1126 363 1126 363 1040 c 1,13,-1
 162 1040 l 1,14,15
 162 1155 162 1155 205 1242.5 c 128,-1,16
 248 1330 248 1330 323.5 1381.5 c 128,-1,17
 399 1433 399 1433 494.5 1458.5 c 128,-1,18
 590 1484 590 1484 703 1484 c 0,19,20
 932 1484 932 1484 1070.5 1367.5 c 128,-1,21
 1209 1251 1209 1251 1209 1075 c 0,22,23
 1209 966 1209 966 1177.5 880.5 c 128,-1,24
 1146 795 1146 795 1097 735 c 128,-1,25
 1048 675 1048 675 959 597 c 1,26,-1
 428 143 l 1,27,-1
 1201 143 l 1,28,-1
 1201 0 l 1,29,-1
 229 0 l 1,0,-1
EndSplineSet
EndChar

StartChar: three
Encoding: 51 51 22
Width: 1394
Flags: W
LayerCount: 2
Fore
SplineSet
1041 391 m 0,0,1
 1041 475 1041 475 1022.5 528 c 128,-1,2
 1004 581 1004 581 954 618.5 c 128,-1,3
 904 656 904 656 818 671.5 c 128,-1,4
 732 687 732 687 597 687 c 1,5,-1
 597 828 l 1,6,7
 664 828 664 828 719 832.5 c 128,-1,8
 774 837 774 837 815 844 c 128,-1,9
 856 851 856 851 887.5 864 c 128,-1,10
 919 877 919 877 940 889 c 128,-1,11
 961 901 961 901 975.5 921 c 128,-1,12
 990 941 990 941 997.5 956.5 c 128,-1,13
 1005 972 1005 972 1009 997.5 c 128,-1,14
 1013 1023 1013 1023 1014 1041 c 128,-1,15
 1015 1059 1015 1059 1015 1088 c 0,16,17
 1015 1199 1015 1199 945 1266.5 c 128,-1,18
 875 1334 875 1334 725 1334 c 0,19,20
 640 1334 640 1334 582.5 1321.5 c 128,-1,21
 525 1309 525 1309 477 1276 c 128,-1,22
 429 1243 429 1243 406 1178.5 c 128,-1,23
 383 1114 383 1114 384 1016 c 1,24,-1
 192 1016 l 1,25,26
 194 1129 194 1129 223.5 1213 c 128,-1,27
 253 1297 253 1297 300 1348 c 128,-1,28
 347 1399 347 1399 417.5 1430 c 128,-1,29
 488 1461 488 1461 561 1472 c 128,-1,30
 634 1483 634 1483 727 1483 c 0,31,32
 822 1483 822 1483 906.5 1458.5 c 128,-1,33
 991 1434 991 1434 1058 1387 c 128,-1,34
 1125 1340 1125 1340 1164 1264 c 128,-1,35
 1203 1188 1203 1188 1203 1091 c 0,36,37
 1203 948 1203 948 1137 867 c 128,-1,38
 1071 786 1071 786 931 760 c 1,39,40
 1004 746 1004 746 1056 723.5 c 128,-1,41
 1108 701 1108 701 1149.5 660.5 c 128,-1,42
 1191 620 1191 620 1211.5 555.5 c 128,-1,43
 1232 491 1232 491 1232 402 c 0,44,45
 1232 294 1232 294 1193 211 c 128,-1,46
 1154 128 1154 128 1084.5 77.5 c 128,-1,47
 1015 27 1015 27 924.5 1.5 c 128,-1,48
 834 -24 834 -24 725 -24 c 0,49,50
 622 -24 622 -24 542.5 -11 c 128,-1,51
 463 2 463 2 393.5 35 c 128,-1,52
 324 68 324 68 278.5 122.5 c 128,-1,53
 233 177 233 177 205 262 c 128,-1,54
 177 347 177 347 173 461 c 1,55,-1
 369 461 l 1,56,57
 371 373 371 373 392 310.5 c 128,-1,58
 413 248 413 248 443.5 212.5 c 128,-1,59
 474 177 474 177 524 157.5 c 128,-1,60
 574 138 574 138 621 132.5 c 128,-1,61
 668 127 668 127 736 127 c 0,62,63
 872 127 872 127 956.5 194.5 c 128,-1,64
 1041 262 1041 262 1041 391 c 0,0,1
EndSplineSet
EndChar

StartChar: four
Encoding: 52 52 23
Width: 1243
Flags: W
LayerCount: 2
Fore
SplineSet
781 837 m 1,0,-1
 948 837 l 1,1,-1
 948 506 l 1,2,-1
 1160 506 l 1,3,-1
 1160 351 l 1,4,-1
 948 351 l 1,5,-1
 948 0 l 1,6,-1
 781 0 l 1,7,-1
 781 351 l 1,8,-1
 141 351 l 1,9,-1
 141 508 l 1,10,-1
 670 1444 l 1,11,-1
 879 1444 l 1,12,-1
 365 506 l 1,13,-1
 781 506 l 1,14,-1
 781 837 l 1,0,-1
EndSplineSet
EndChar

StartChar: five
Encoding: 53 53 24
Width: 1348
Flags: W
LayerCount: 2
Fore
SplineSet
1201 466 m 0,0,1
 1201 238 1201 238 1058.5 107 c 128,-1,2
 916 -24 916 -24 655 -24 c 0,3,4
 384 -24 384 -24 187 136 c 1,5,-1
 241 280 l 1,6,7
 453 127 453 127 666 127 c 0,8,9
 757 127 757 127 825 154 c 128,-1,10
 893 181 893 181 932.5 229 c 128,-1,11
 972 277 972 277 990.5 336 c 128,-1,12
 1009 395 1009 395 1009 466 c 0,13,14
 1009 491 1009 491 1008 504 c 0,15,16
 1001 634 1001 634 914.5 710.5 c 128,-1,17
 828 787 828 787 700 787 c 0,18,19
 548 787 548 787 397 677 c 1,20,-1
 251 737 l 1,21,-1
 322 1446 l 1,22,-1
 1099 1446 l 1,23,-1
 1099 1281 l 1,24,-1
 483 1281 l 1,25,-1
 432 851 l 1,26,27
 595 936 595 936 748 936 c 0,28,29
 938 936 938 936 1063 818.5 c 128,-1,30
 1188 701 1188 701 1199 515 c 0,31,32
 1201 483 1201 483 1201 466 c 0,0,1
EndSplineSet
EndChar

StartChar: six
Encoding: 54 54 25
Width: 1491
Flags: W
LayerCount: 2
Fore
SplineSet
764 114 m 0,0,1
 1115 114 1115 114 1115 419 c 0,2,3
 1115 508 1115 508 1088 570.5 c 128,-1,4
 1061 633 1061 633 1010.5 666.5 c 128,-1,5
 960 700 960 700 901 714 c 128,-1,6
 842 728 842 728 766 728 c 0,7,8
 689 728 689 728 626 713 c 128,-1,9
 563 698 563 698 509 664.5 c 128,-1,10
 455 631 455 631 425 568.5 c 128,-1,11
 395 506 395 506 395 419 c 0,12,13
 395 335 395 335 425 273.5 c 128,-1,14
 455 212 455 212 508.5 178.5 c 128,-1,15
 562 145 562 145 625 129.5 c 128,-1,16
 688 114 688 114 764 114 c 0,0,1
759 -24 m 0,17,18
 646 -24 646 -24 548 1 c 128,-1,19
 450 26 450 26 370 77 c 128,-1,20
 290 128 290 128 244 215.5 c 128,-1,21
 198 303 198 303 198 419 c 0,22,23
 198 540 198 540 244 629 c 1,24,-1
 708 1446 l 1,25,-1
 915 1446 l 1,26,-1
 570 844 l 1,27,28
 659 872 659 872 769 872 c 0,29,30
 859 872 859 872 937.5 857 c 128,-1,31
 1016 842 1016 842 1085.5 807.5 c 128,-1,32
 1155 773 1155 773 1204.5 721.5 c 128,-1,33
 1254 670 1254 670 1282.5 592.5 c 128,-1,34
 1311 515 1311 515 1311 419 c 0,35,36
 1311 326 1311 326 1281.5 251 c 128,-1,37
 1252 176 1252 176 1201 125.5 c 128,-1,38
 1150 75 1150 75 1079.5 41 c 128,-1,39
 1009 7 1009 7 929 -8.5 c 128,-1,40
 849 -24 849 -24 759 -24 c 0,17,18
EndSplineSet
EndChar

StartChar: seven
Encoding: 55 55 26
Width: 1142
Flags: W
LayerCount: 2
Fore
SplineSet
501 0 m 1,0,-1
 290 0 l 1,1,-1
 790 1291 l 1,2,-1
 110 1291 l 1,3,-1
 110 1446 l 1,4,-1
 991 1446 l 1,5,-1
 991 1289 l 1,6,-1
 501 0 l 1,0,-1
EndSplineSet
EndChar

StartChar: eight
Encoding: 56 56 27
Width: 1389
Flags: W
LayerCount: 2
Fore
SplineSet
1208 367 m 0,0,1
 1208 174 1208 174 1069.5 75.5 c 128,-1,2
 931 -23 931 -23 691 -23 c 0,3,4
 450 -23 450 -23 315.5 75 c 128,-1,5
 181 173 181 173 181 367 c 0,6,7
 181 628 181 628 508 773 c 1,8,9
 457 796 457 796 418 818 c 128,-1,10
 379 840 379 840 338 872.5 c 128,-1,11
 297 905 297 905 270 939.5 c 128,-1,12
 243 974 243 974 226 1021.5 c 128,-1,13
 209 1069 209 1069 209 1123 c 0,14,15
 209 1220 209 1220 248.5 1291 c 128,-1,16
 288 1362 288 1362 357.5 1402.5 c 128,-1,17
 427 1443 427 1443 511.5 1462 c 128,-1,18
 596 1481 596 1481 696 1481 c 0,19,20
 795 1481 795 1481 878.5 1462 c 128,-1,21
 962 1443 962 1443 1031.5 1402.5 c 128,-1,22
 1101 1362 1101 1362 1140.5 1290.5 c 128,-1,23
 1180 1219 1180 1219 1180 1123 c 0,24,25
 1180 1069 1180 1069 1163 1021.5 c 128,-1,26
 1146 974 1146 974 1119 939.5 c 128,-1,27
 1092 905 1092 905 1051 872.5 c 128,-1,28
 1010 840 1010 840 971 818 c 128,-1,29
 932 796 932 796 881 773 c 1,30,31
 1208 628 1208 628 1208 367 c 0,0,1
404 1122 m 0,32,33
 404 1076 404 1076 427 1035.5 c 128,-1,34
 450 995 450 995 497 960 c 128,-1,35
 544 925 544 925 585.5 901.5 c 128,-1,36
 627 878 627 878 695 846 c 1,37,38
 764 879 764 879 804.5 902 c 128,-1,39
 845 925 845 925 892.5 960.5 c 128,-1,40
 940 996 940 996 962.5 1036 c 128,-1,41
 985 1076 985 1076 985 1122 c 0,42,43
 985 1218 985 1218 913 1272 c 128,-1,44
 841 1326 841 1326 696 1326 c 0,45,46
 550 1326 550 1326 477 1272 c 128,-1,47
 404 1218 404 1218 404 1122 c 0,32,33
1017 372 m 0,48,49
 1017 416 1017 416 1000 454 c 128,-1,50
 983 492 983 492 955.5 521 c 128,-1,51
 928 550 928 550 886.5 577.5 c 128,-1,52
 845 605 845 605 804.5 626 c 128,-1,53
 764 647 764 647 712 672 c 0,54,55
 701 677 701 677 695 680 c 1,56,57
 544 607 544 607 491 570 c 0,58,59
 372 485 372 485 372 372 c 0,60,61
 372 138 372 138 696 138 c 0,62,63
 1017 138 1017 138 1017 372 c 0,48,49
EndSplineSet
EndChar

StartChar: nine
Encoding: 57 57 28
Width: 1473
Flags: W
LayerCount: 2
Fore
SplineSet
734 1345 m 0,0,1
 388 1345 388 1345 388 1040 c 0,2,3
 388 951 388 951 414.5 888.5 c 128,-1,4
 441 826 441 826 490 792.5 c 128,-1,5
 539 759 539 759 597.5 745 c 128,-1,6
 656 731 656 731 732 731 c 0,7,8
 809 731 809 731 871 746 c 128,-1,9
 933 761 933 761 986 794.5 c 128,-1,10
 1039 828 1039 828 1068.5 890.5 c 128,-1,11
 1098 953 1098 953 1098 1040 c 0,12,13
 1098 1125 1098 1125 1069 1186 c 128,-1,14
 1040 1247 1040 1247 987.5 1280.5 c 128,-1,15
 935 1314 935 1314 872.5 1329.5 c 128,-1,16
 810 1345 810 1345 734 1345 c 0,0,1
584 0 m 1,17,-1
 932 621 l 1,18,19
 898 607 898 607 834.5 595.5 c 128,-1,20
 771 584 771 584 724 584 c 0,21,22
 611 584 611 584 516.5 609.5 c 128,-1,23
 422 635 422 635 347 687.5 c 128,-1,24
 272 740 272 740 229.5 830 c 128,-1,25
 187 920 187 920 187 1040 c 0,26,27
 187 1133 187 1133 216.5 1208 c 128,-1,28
 246 1283 246 1283 297 1333.5 c 128,-1,29
 348 1384 348 1384 418.5 1418 c 128,-1,30
 489 1452 489 1452 569 1467.5 c 128,-1,31
 649 1483 649 1483 739 1483 c 0,32,33
 852 1483 852 1483 950 1458 c 128,-1,34
 1048 1433 1048 1433 1128 1382 c 128,-1,35
 1208 1331 1208 1331 1254 1243.5 c 128,-1,36
 1300 1156 1300 1156 1300 1040 c 0,37,38
 1300 921 1300 921 1253 830 c 1,39,-1
 796 0 l 1,40,-1
 584 0 l 1,17,-1
EndSplineSet
EndChar

StartChar: colon
Encoding: 58 58 29
Width: 567
Flags: W
LayerCount: 2
Fore
SplineSet
164 1023 m 1,0,-1
 415 1023 l 1,1,-1
 415 768 l 1,2,-1
 164 768 l 1,3,-1
 164 1023 l 1,0,-1
164 353 m 1,4,-1
 415 353 l 1,5,-1
 415 99 l 1,6,-1
 164 99 l 1,7,-1
 164 353 l 1,4,-1
EndSplineSet
EndChar

StartChar: semicolon
Encoding: 59 59 30
Width: 684
Flags: W
LayerCount: 2
Fore
SplineSet
257 421 m 1,0,-1
 491 421 l 1,1,-1
 491 260 l 2,2,3
 491 131 491 131 444 27 c 128,-1,4
 397 -77 397 -77 342 -128 c 1,5,-1
 261 -84 l 1,6,7
 306 -31 306 -31 340.5 45 c 128,-1,8
 375 121 375 121 375 210 c 1,9,-1
 257 210 l 1,10,-1
 257 421 l 1,0,-1
263 1084 m 1,11,-1
 468 1084 l 1,12,-1
 468 878 l 1,13,-1
 263 878 l 1,14,-1
 263 1084 l 1,11,-1
EndSplineSet
EndChar

StartChar: less
Encoding: 60 60 31
Width: 1455
Flags: W
LayerCount: 2
Fore
SplineSet
1137 925 m 1,0,-1
 416 573 l 1,1,-1
 1137 217 l 1,2,-1
 1137 0 l 1,3,-1
 251 471 l 1,4,-1
 251 672 l 1,5,-1
 1137 1144 l 1,6,-1
 1137 925 l 1,0,-1
EndSplineSet
EndChar

StartChar: equal
Encoding: 61 61 32
Width: 1217
Flags: W
LayerCount: 2
Fore
SplineSet
207 615 m 1,0,-1
 1010 615 l 1,1,-1
 1010 467 l 1,2,-1
 207 467 l 1,3,-1
 207 615 l 1,0,-1
207 953 m 1,4,-1
 1010 953 l 1,5,-1
 1010 805 l 1,6,-1
 207 805 l 1,7,-1
 207 953 l 1,4,-1
EndSplineSet
EndChar

StartChar: greater
Encoding: 62 62 33
Width: 1455
Flags: W
LayerCount: 2
Fore
SplineSet
318 219 m 1,0,-1
 1039 571 l 1,1,-1
 318 927 l 1,2,-1
 318 1144 l 1,3,-1
 1204 673 l 1,4,-1
 1204 472 l 1,5,-1
 318 0 l 1,6,-1
 318 219 l 1,0,-1
EndSplineSet
EndChar

StartChar: at
Encoding: 64 64 35
Width: 1636
Flags: W
LayerCount: 2
Fore
SplineSet
1493 301 m 1,0,-1
 1493 165 l 1,1,2
 1465 161 1465 161 1413 161 c 0,3,4
 1313 161 1313 161 1267 197.5 c 128,-1,5
 1221 234 1221 234 1195 315 c 1,6,7
 1089 153 1089 153 864 153 c 0,8,9
 703 153 703 153 614.5 239.5 c 128,-1,10
 526 326 526 326 526 456 c 0,11,12
 526 513 526 513 541 553.5 c 128,-1,13
 556 594 556 594 598.5 633.5 c 128,-1,14
 641 673 641 673 723 706 c 128,-1,15
 805 739 805 739 932 770 c 0,16,17
 985 783 985 783 1046 799.5 c 128,-1,18
 1107 816 1107 816 1139 825 c 128,-1,19
 1171 834 1171 834 1174 835 c 1,20,21
 1174 877 1174 877 1173.5 900 c 128,-1,22
 1173 923 1173 923 1169.5 957 c 128,-1,23
 1166 991 1166 991 1159.5 1009 c 128,-1,24
 1153 1027 1153 1027 1140.5 1052 c 128,-1,25
 1128 1077 1128 1077 1109.5 1090 c 128,-1,26
 1091 1103 1091 1103 1064 1118.5 c 128,-1,27
 1037 1134 1037 1134 1001 1141 c 128,-1,28
 965 1148 965 1148 917.5 1153 c 128,-1,29
 870 1158 870 1158 811 1158 c 0,30,31
 371 1158 371 1158 371 818 c 2,32,-1
 371 281 l 2,33,34
 371 188 371 188 406.5 119 c 128,-1,35
 442 50 442 50 506 10 c 128,-1,36
 570 -30 570 -30 650.5 -49 c 128,-1,37
 731 -68 731 -68 831 -68 c 0,38,39
 890 -68 890 -68 969.5 -56.5 c 128,-1,40
 1049 -45 1049 -45 1123 -26.5 c 128,-1,41
 1197 -8 1197 -8 1242 12 c 1,42,-1
 1304 -128 l 1,43,44
 1223 -163 1223 -163 1083.5 -190.5 c 128,-1,45
 944 -218 944 -218 831 -218 c 0,46,47
 689 -218 689 -218 578.5 -191.5 c 128,-1,48
 468 -165 468 -165 394 -118.5 c 128,-1,49
 320 -72 320 -72 272 -4.5 c 128,-1,50
 224 63 224 63 203.5 141 c 128,-1,51
 183 219 183 219 183 312 c 2,52,-1
 183 781 l 2,53,54
 183 877 183 877 201.5 954 c 128,-1,55
 220 1031 220 1031 264.5 1098.5 c 128,-1,56
 309 1166 309 1166 380 1211.5 c 128,-1,57
 451 1257 451 1257 560 1283 c 128,-1,58
 669 1309 669 1309 811 1309 c 0,59,60
 925 1309 925 1309 1015 1291 c 128,-1,61
 1105 1273 1105 1273 1162 1248.5 c 128,-1,62
 1219 1224 1219 1224 1259 1180 c 128,-1,63
 1299 1136 1299 1136 1318.5 1101.5 c 128,-1,64
 1338 1067 1338 1067 1348.5 1011.5 c 128,-1,65
 1359 956 1359 956 1360.5 927 c 128,-1,66
 1362 898 1362 898 1362 846 c 0,67,68
 1362 843 1362 843 1362 842 c 2,69,-1
 1362 441 l 2,70,71
 1362 360 1362 360 1387.5 330.5 c 128,-1,72
 1413 301 1413 301 1493 301 c 1,0,-1
1174 446 m 1,73,-1
 1174 718 l 1,74,75
 1135 698 1135 698 947 650 c 0,76,77
 841 623 841 623 787.5 592 c 128,-1,78
 734 561 734 561 719.5 528 c 128,-1,79
 705 495 705 495 708 439 c 0,80,81
 712 362 712 362 762 324 c 128,-1,82
 812 286 812 286 893 286 c 0,83,84
 983 286 983 286 1068 331 c 128,-1,85
 1153 376 1153 376 1174 446 c 1,73,-1
EndSplineSet
EndChar

StartChar: A
Encoding: 65 65 36
Width: 1376
Flags: W
LayerCount: 2
Fore
SplineSet
959 417 m 1,0,-1
 693 1184 l 1,1,-1
 424 417 l 1,2,-1
 959 417 l 1,0,-1
1308 0 m 1,3,-1
 1103 0 l 1,4,-1
 1005 282 l 1,5,-1
 376 282 l 1,6,-1
 277 0 l 1,7,-1
 68 0 l 1,8,-1
 599 1446 l 1,9,-1
 776 1446 l 1,10,-1
 1308 0 l 1,3,-1
EndSplineSet
EndChar

StartChar: B
Encoding: 66 66 37
Width: 1467
Flags: W
LayerCount: 2
Fore
SplineSet
433 696 m 1,0,-1
 433 149 l 1,1,-1
 786 149 l 2,2,3
 848 149 848 149 890.5 152.5 c 128,-1,4
 933 156 933 156 976.5 166.5 c 128,-1,5
 1020 177 1020 177 1047 197.5 c 128,-1,6
 1074 218 1074 218 1096.5 250.5 c 128,-1,7
 1119 283 1119 283 1129 331.5 c 128,-1,8
 1139 380 1139 380 1139 446 c 0,9,10
 1139 696 1139 696 863 696 c 2,11,-1
 433 696 l 1,0,-1
433 833 m 1,12,-1
 834 833 l 2,13,14
 963 833 963 833 1013.5 887 c 128,-1,15
 1064 941 1064 941 1064 1047 c 0,16,17
 1064 1111 1064 1111 1054 1153.5 c 128,-1,18
 1044 1196 1044 1196 1024 1224.5 c 128,-1,19
 1004 1253 1004 1253 965 1268 c 128,-1,20
 926 1283 926 1283 876 1289 c 128,-1,21
 826 1295 826 1295 749 1295 c 2,22,-1
 433 1295 l 1,23,-1
 433 833 l 1,12,-1
806 -1 m 2,24,-1
 231 -1 l 1,25,-1
 231 1446 l 1,26,-1
 769 1446 l 2,27,28
 918 1446 918 1446 1015.5 1423 c 128,-1,29
 1113 1400 1113 1400 1167.5 1348.5 c 128,-1,30
 1222 1297 1222 1297 1243.5 1226.5 c 128,-1,31
 1265 1156 1265 1156 1265 1049 c 128,-1,32
 1265 942 1265 942 1233.5 869.5 c 128,-1,33
 1202 797 1202 797 1123 769 c 1,34,35
 1194 751 1194 751 1245 696.5 c 128,-1,36
 1296 642 1296 642 1318 578 c 128,-1,37
 1340 514 1340 514 1340 448 c 0,38,39
 1340 214 1340 214 1211 106.5 c 128,-1,40
 1082 -1 1082 -1 806 -1 c 2,24,-1
EndSplineSet
EndChar

StartChar: C
Encoding: 67 67 38
Width: 1460
Flags: W
LayerCount: 2
Fore
SplineSet
1107 900 m 1,0,-1
 1107 992 l 2,1,2
 1107 1184 1107 1184 1030 1258 c 128,-1,3
 953 1332 953 1332 760 1332 c 0,4,5
 564 1332 564 1332 474.5 1256 c 128,-1,6
 385 1180 385 1180 385 992 c 2,7,-1
 385 455 l 2,8,9
 385 269 385 269 473.5 197.5 c 128,-1,10
 562 126 562 126 762 126 c 0,11,12
 958 126 958 126 1032.5 195.5 c 128,-1,13
 1107 265 1107 265 1107 455 c 2,14,-1
 1107 558 l 1,15,-1
 1302 558 l 1,16,-1
 1302 500 l 2,17,18
 1302 432 1302 432 1296.5 377.5 c 128,-1,19
 1291 323 1291 323 1276 267 c 128,-1,20
 1261 211 1261 211 1236 169 c 128,-1,21
 1211 127 1211 127 1169.5 89 c 128,-1,22
 1128 51 1128 51 1072.5 27.5 c 128,-1,23
 1017 4 1017 4 938.5 -10 c 128,-1,24
 860 -24 860 -24 762 -24 c 0,25,26
 620 -24 620 -24 516.5 1 c 128,-1,27
 413 26 413 26 349.5 68 c 128,-1,28
 286 110 286 110 248 177 c 128,-1,29
 210 244 210 244 196.5 316.5 c 128,-1,30
 183 389 183 389 183 486 c 2,31,-1
 183 955 l 2,32,33
 183 1054 183 1054 196 1128.5 c 128,-1,34
 209 1203 209 1203 246.5 1272.5 c 128,-1,35
 284 1342 284 1342 347 1386 c 128,-1,36
 410 1430 410 1430 514 1456.5 c 128,-1,37
 618 1483 618 1483 760 1483 c 0,38,39
 874 1483 874 1483 962 1465 c 128,-1,40
 1050 1447 1050 1447 1108.5 1410.5 c 128,-1,41
 1167 1374 1167 1374 1206 1328 c 128,-1,42
 1245 1282 1245 1282 1265.5 1217.5 c 128,-1,43
 1286 1153 1286 1153 1294 1089 c 128,-1,44
 1302 1025 1302 1025 1302 942 c 2,45,-1
 1302 900 l 1,46,-1
 1107 900 l 1,0,-1
EndSplineSet
EndChar

StartChar: D
Encoding: 68 68 39
Width: 1530
Flags: W
LayerCount: 2
Fore
SplineSet
231 0 m 1,0,-1
 231 1446 l 1,1,-1
 799 1446 l 2,2,3
 945 1446 945 1446 1053 1409.5 c 128,-1,4
 1161 1373 1161 1373 1224 1305.5 c 128,-1,5
 1287 1238 1287 1238 1317 1152 c 128,-1,6
 1347 1066 1347 1066 1347 959 c 2,7,-1
 1347 482 l 2,8,9
 1347 245 1347 245 1210.5 122.5 c 128,-1,10
 1074 0 1074 0 801 0 c 2,11,-1
 231 0 l 1,0,-1
781 150 m 2,12,13
 849 150 849 150 899.5 156.5 c 128,-1,14
 950 163 950 163 998.5 183 c 128,-1,15
 1047 203 1047 203 1078 237 c 128,-1,16
 1109 271 1109 271 1127.5 327.5 c 128,-1,17
 1146 384 1146 384 1146 462 c 2,18,-1
 1146 971 l 2,19,20
 1146 1049 1146 1049 1127.5 1107 c 128,-1,21
 1109 1165 1109 1165 1077.5 1200.5 c 128,-1,22
 1046 1236 1046 1236 998 1257.5 c 128,-1,23
 950 1279 950 1279 898.5 1287 c 128,-1,24
 847 1295 847 1295 781 1295 c 2,25,-1
 433 1295 l 1,26,-1
 433 150 l 1,27,-1
 781 150 l 2,12,13
EndSplineSet
EndChar

StartChar: E
Encoding: 69 69 40
Width: 1241
Flags: W
LayerCount: 2
Fore
SplineSet
231 1446 m 1,0,-1
 1074 1446 l 1,1,-1
 1074 1296 l 1,2,-1
 432 1296 l 1,3,-1
 432 814 l 1,4,-1
 1013 814 l 1,5,-1
 1013 664 l 1,6,-1
 432 664 l 1,7,-1
 432 150 l 1,8,-1
 1083 150 l 1,9,-1
 1083 0 l 1,10,-1
 231 0 l 1,11,-1
 231 1446 l 1,0,-1
EndSplineSet
EndChar

StartChar: F
Encoding: 70 70 41
Width: 1180
Flags: W
LayerCount: 2
Fore
SplineSet
231 0 m 1,0,-1
 231 1446 l 1,1,-1
 1052 1446 l 1,2,-1
 1052 1296 l 1,3,-1
 432 1296 l 1,4,-1
 432 814 l 1,5,-1
 1016 814 l 1,6,-1
 1016 664 l 1,7,-1
 432 664 l 1,8,-1
 432 0 l 1,9,-1
 231 0 l 1,0,-1
EndSplineSet
EndChar

StartChar: G
Encoding: 71 71 42
Width: 1516
Flags: W
LayerCount: 2
Fore
SplineSet
1232 0 m 1,0,-1
 1188 216 l 1,1,2
 1174 167 1174 167 1146.5 127 c 128,-1,3
 1119 87 1119 87 1070.5 51.5 c 128,-1,4
 1022 16 1022 16 943.5 -4 c 128,-1,5
 865 -24 865 -24 762 -24 c 0,6,7
 620 -24 620 -24 516.5 1 c 128,-1,8
 413 26 413 26 349.5 68 c 128,-1,9
 286 110 286 110 248 177 c 128,-1,10
 210 244 210 244 196.5 316.5 c 128,-1,11
 183 389 183 389 183 486 c 2,12,-1
 183 955 l 2,13,14
 183 1053 183 1053 197 1128 c 128,-1,15
 211 1203 211 1203 249 1272.5 c 128,-1,16
 287 1342 287 1342 351 1386 c 128,-1,17
 415 1430 415 1430 519.5 1456.5 c 128,-1,18
 624 1483 624 1483 766 1483 c 0,19,20
 864 1483 864 1483 942.5 1468.5 c 128,-1,21
 1021 1454 1021 1454 1076.5 1429.5 c 128,-1,22
 1132 1405 1132 1405 1173 1366 c 128,-1,23
 1214 1327 1214 1327 1238.5 1284 c 128,-1,24
 1263 1241 1263 1241 1277.5 1183 c 128,-1,25
 1292 1125 1292 1125 1297 1069 c 128,-1,26
 1302 1013 1302 1013 1302 942 c 2,27,-1
 1302 900 l 1,28,-1
 1107 900 l 1,29,-1
 1107 992 l 2,30,31
 1107 1184 1107 1184 1032.5 1258 c 128,-1,32
 958 1332 958 1332 766 1332 c 0,33,34
 569 1332 569 1332 477 1255.5 c 128,-1,35
 385 1179 385 1179 385 992 c 2,36,-1
 385 455 l 2,37,38
 385 269 385 269 473.5 197.5 c 128,-1,39
 562 126 562 126 762 126 c 0,40,41
 958 126 958 126 1032.5 195.5 c 128,-1,42
 1107 265 1107 265 1107 455 c 2,43,-1
 1107 588 l 1,44,-1
 883 588 l 1,45,-1
 883 735 l 1,46,-1
 1323 735 l 1,47,-1
 1323 0 l 1,48,-1
 1232 0 l 1,0,-1
EndSplineSet
EndChar

StartChar: H
Encoding: 72 72 43
Width: 1543
Flags: W
LayerCount: 2
Fore
SplineSet
231 1446 m 1,0,-1
 432 1446 l 1,1,-1
 432 807 l 1,2,-1
 1111 807 l 1,3,-1
 1111 1446 l 1,4,-1
 1312 1446 l 1,5,-1
 1312 0 l 1,6,-1
 1111 0 l 1,7,-1
 1111 659 l 1,8,-1
 432 659 l 1,9,-1
 432 0 l 1,10,-1
 231 0 l 1,11,-1
 231 1446 l 1,0,-1
EndSplineSet
EndChar

StartChar: I
Encoding: 73 73 44
Width: 1133
Flags: W
LayerCount: 2
Fore
SplineSet
942 0 m 1,0,-1
 191 0 l 1,1,-1
 191 150 l 1,2,-1
 466 150 l 1,3,-1
 466 1297 l 1,4,-1
 191 1297 l 1,5,-1
 191 1446 l 1,6,-1
 942 1446 l 1,7,-1
 942 1297 l 1,8,-1
 667 1297 l 1,9,-1
 667 150 l 1,10,-1
 942 150 l 1,11,-1
 942 0 l 1,0,-1
EndSplineSet
EndChar

StartChar: J
Encoding: 74 74 45
Width: 1169
Flags: W
LayerCount: 2
Fore
SplineSet
150 225 m 1,0,1
 314 148 314 148 477 148 c 0,2,3
 617 148 617 148 679 219.5 c 128,-1,4
 741 291 741 291 741 435 c 2,5,-1
 741 1281 l 1,6,-1
 377 1281 l 1,7,-1
 377 1446 l 1,8,-1
 942 1446 l 1,9,-1
 942 431 l 2,10,11
 942 217 942 217 830.5 100 c 128,-1,12
 719 -17 719 -17 483 -17 c 0,13,14
 370 -17 370 -17 263 10.5 c 128,-1,15
 156 38 156 38 95 70 c 1,16,-1
 150 225 l 1,0,1
EndSplineSet
EndChar

StartChar: K
Encoding: 75 75 46
Width: 1421
Flags: W
LayerCount: 2
Fore
SplineSet
231 1446 m 1,0,-1
 432 1446 l 1,1,-1
 432 657 l 1,2,3
 530 777 530 777 645 909 c 128,-1,4
 760 1041 760 1041 899.5 1198.5 c 128,-1,5
 1039 1356 1039 1356 1117 1446 c 1,6,-1
 1335 1446 l 1,7,-1
 791 798 l 1,8,-1
 1364 0 l 1,9,-1
 1141 0 l 1,10,-1
 650 690 l 1,11,-1
 432 468 l 1,12,-1
 432 0 l 1,13,-1
 231 0 l 1,14,-1
 231 1446 l 1,0,-1
EndSplineSet
EndChar

StartChar: L
Encoding: 76 76 47
Width: 1148
Flags: W
LayerCount: 2
Fore
SplineSet
231 1446 m 1,0,-1
 432 1446 l 1,1,-1
 432 155 l 1,2,-1
 1080 155 l 1,3,-1
 1080 0 l 1,4,-1
 231 0 l 1,5,-1
 231 1446 l 1,0,-1
EndSplineSet
EndChar

StartChar: M
Encoding: 77 77 48
Width: 1786
Flags: W
LayerCount: 2
Fore
SplineSet
231 0 m 1,0,-1
 231 1446 l 1,1,-1
 416 1446 l 1,2,-1
 894 638 l 1,3,-1
 1377 1446 l 1,4,-1
 1555 1446 l 1,5,-1
 1555 0 l 1,6,-1
 1365 0 l 1,7,-1
 1365 1121 l 1,8,-1
 969 458 l 1,9,-1
 820 458 l 1,10,-1
 423 1117 l 1,11,-1
 423 0 l 1,12,-1
 231 0 l 1,0,-1
EndSplineSet
EndChar

StartChar: N
Encoding: 78 78 49
Width: 1616
Flags: W
LayerCount: 2
Fore
SplineSet
231 0 m 1,0,-1
 231 1446 l 1,1,-1
 384 1446 l 1,2,-1
 1210 281 l 1,3,-1
 1210 1446 l 1,4,-1
 1385 1446 l 1,5,-1
 1385 0 l 1,6,-1
 1206 0 l 1,7,-1
 406 1115 l 1,8,-1
 406 0 l 1,9,-1
 231 0 l 1,0,-1
EndSplineSet
EndChar

StartChar: O
Encoding: 79 79 50
Width: 1532
Flags: W
LayerCount: 2
Fore
SplineSet
775 -24 m 0,0,1
 633 -24 633 -24 528 1 c 128,-1,2
 423 26 423 26 357.5 68.5 c 128,-1,3
 292 111 292 111 252.5 177 c 128,-1,4
 213 243 213 243 198 316.5 c 128,-1,5
 183 390 183 390 183 486 c 2,6,-1
 183 955 l 2,7,8
 183 1053 183 1053 197.5 1128 c 128,-1,9
 212 1203 212 1203 252 1272 c 128,-1,10
 292 1341 292 1341 357 1386 c 128,-1,11
 422 1431 422 1431 527.5 1457 c 128,-1,12
 633 1483 633 1483 775 1483 c 0,13,14
 912 1483 912 1483 1014 1455.5 c 128,-1,15
 1116 1428 1116 1428 1179 1381.5 c 128,-1,16
 1242 1335 1242 1335 1281 1264 c 128,-1,17
 1320 1193 1320 1193 1334.5 1116.5 c 128,-1,18
 1349 1040 1349 1040 1349 942 c 2,19,-1
 1349 500 l 2,20,21
 1349 422 1349 422 1338.5 358 c 128,-1,22
 1328 294 1328 294 1303.5 233 c 128,-1,23
 1279 172 1279 172 1236 126.5 c 128,-1,24
 1193 81 1193 81 1131 46.5 c 128,-1,25
 1069 12 1069 12 979 -6 c 128,-1,26
 889 -24 889 -24 775 -24 c 0,0,1
775 126 m 0,27,28
 975 126 975 126 1061.5 197 c 128,-1,29
 1148 268 1148 268 1148 455 c 2,30,-1
 1148 992 l 2,31,32
 1148 1180 1148 1180 1060 1256 c 128,-1,33
 972 1332 972 1332 775 1332 c 0,34,35
 576 1332 576 1332 480.5 1255 c 128,-1,36
 385 1178 385 1178 385 992 c 2,37,-1
 385 455 l 2,38,39
 385 270 385 270 479 198 c 128,-1,40
 573 126 573 126 775 126 c 0,27,28
EndSplineSet
EndChar

StartChar: P
Encoding: 80 80 51
Width: 1351
Flags: W
LayerCount: 2
Fore
SplineSet
231 0 m 1,0,-1
 231 1446 l 1,1,-1
 808 1446 l 2,2,3
 997 1446 997 1446 1102.5 1342.5 c 128,-1,4
 1208 1239 1208 1239 1212 1024 c 1,5,-1
 1212 957 l 2,6,7
 1212 529 1212 529 807 529 c 2,8,-1
 433 529 l 1,9,-1
 433 0 l 1,10,-1
 231 0 l 1,0,-1
433 682 m 1,11,-1
 811 682 l 2,12,13
 1008 682 1008 682 1010 935 c 1,14,-1
 1010 1018 l 2,15,16
 1010 1293 1010 1293 814 1293 c 2,17,-1
 433 1293 l 1,18,-1
 433 682 l 1,11,-1
EndSplineSet
EndChar

StartChar: Q
Encoding: 81 81 52
Width: 1532
Flags: W
LayerCount: 2
Fore
SplineSet
893 -18 m 1,0,-1
 1085 -308 l 1,1,-1
 944 -384 l 1,2,-1
 713 -23 l 1,3,4
 586 -18 586 -18 492.5 9.5 c 128,-1,5
 399 37 399 37 340 80 c 128,-1,6
 281 123 281 123 245.5 188 c 128,-1,7
 210 253 210 253 196.5 323.5 c 128,-1,8
 183 394 183 394 183 486 c 2,9,-1
 183 955 l 2,10,11
 183 1053 183 1053 197.5 1128 c 128,-1,12
 212 1203 212 1203 252 1272 c 128,-1,13
 292 1341 292 1341 357 1386 c 128,-1,14
 422 1431 422 1431 527.5 1457 c 128,-1,15
 633 1483 633 1483 775 1483 c 0,16,17
 912 1483 912 1483 1014 1455.5 c 128,-1,18
 1116 1428 1116 1428 1179 1381.5 c 128,-1,19
 1242 1335 1242 1335 1281 1264 c 128,-1,20
 1320 1193 1320 1193 1334.5 1116.5 c 128,-1,21
 1349 1040 1349 1040 1349 942 c 2,22,-1
 1349 500 l 2,23,24
 1349 414 1349 414 1337 345 c 128,-1,25
 1325 276 1325 276 1293.5 211.5 c 128,-1,26
 1262 147 1262 147 1211.5 101.5 c 128,-1,27
 1161 56 1161 56 1080.5 24.5 c 128,-1,28
 1000 -7 1000 -7 893 -18 c 1,0,-1
775 126 m 0,29,30
 975 126 975 126 1061.5 197 c 128,-1,31
 1148 268 1148 268 1148 455 c 2,32,-1
 1148 992 l 2,33,34
 1148 1180 1148 1180 1060 1256 c 128,-1,35
 972 1332 972 1332 775 1332 c 0,36,37
 576 1332 576 1332 480.5 1255 c 128,-1,38
 385 1178 385 1178 385 992 c 2,39,-1
 385 455 l 2,40,41
 385 270 385 270 479 198 c 128,-1,42
 573 126 573 126 775 126 c 0,29,30
EndSplineSet
EndChar

StartChar: R
Encoding: 82 82 53
Width: 1476
Flags: W
LayerCount: 2
Fore
SplineSet
231 0 m 1,0,-1
 231 1446 l 1,1,-1
 875 1446 l 2,2,3
 1064 1446 1064 1446 1169.5 1342.5 c 128,-1,4
 1275 1239 1275 1239 1279 1024 c 1,5,-1
 1279 969 l 2,6,7
 1279 685 1279 685 1084 603 c 1,8,-1
 1341 0 l 1,9,-1
 1129 0 l 1,10,-1
 897 567 l 1,11,12
 892 567 892 567 880.5 566.5 c 128,-1,13
 869 566 869 566 863 566 c 2,14,-1
 433 566 l 1,15,-1
 433 0 l 1,16,-1
 231 0 l 1,0,-1
433 719 m 1,17,-1
 867 719 l 2,18,19
 1075 719 1075 719 1077 947 c 1,20,-1
 1077 1018 l 2,21,22
 1077 1293 1077 1293 881 1293 c 2,23,-1
 433 1293 l 1,24,-1
 433 719 l 1,17,-1
EndSplineSet
EndChar

StartChar: S
Encoding: 83 83 54
Width: 1303
Flags: W
LayerCount: 2
Fore
SplineSet
152 209 m 1,0,-1
 239 338 l 1,1,2
 287 288 287 288 343 247 c 128,-1,3
 399 206 399 206 488.5 172 c 128,-1,4
 578 138 578 138 671 138 c 0,5,6
 815 138 815 138 894.5 188.5 c 128,-1,7
 974 239 974 239 983 352 c 0,8,9
 991 449 991 449 945.5 505 c 128,-1,10
 900 561 900 561 773 616 c 2,11,-1
 487 740 l 2,12,13
 428 766 428 766 387 787.5 c 128,-1,14
 346 809 346 809 301.5 842.5 c 128,-1,15
 257 876 257 876 231 912.5 c 128,-1,16
 205 949 205 949 189.5 1002 c 128,-1,17
 174 1055 174 1055 176 1118 c 0,18,19
 179 1193 179 1193 206 1254 c 128,-1,20
 233 1315 233 1315 278 1356.5 c 128,-1,21
 323 1398 323 1398 384 1426.5 c 128,-1,22
 445 1455 445 1455 514 1468 c 128,-1,23
 583 1481 583 1481 660 1481 c 0,24,25
 842 1481 842 1481 967 1422 c 128,-1,26
 1092 1363 1092 1363 1151 1284 c 1,27,-1
 1061 1159 l 1,28,29
 928 1321 928 1321 675 1326 c 1,30,31
 532 1327 532 1327 455.5 1275 c 128,-1,32
 379 1223 379 1223 372 1137 c 0,33,34
 366 1059 366 1059 402 1009 c 128,-1,35
 438 959 438 959 549 911 c 2,36,-1
 850 780 l 2,37,38
 910 754 910 754 951.5 732.5 c 128,-1,39
 993 711 993 711 1039.5 676 c 128,-1,40
 1086 641 1086 641 1113.5 602 c 128,-1,41
 1141 563 1141 563 1159 506 c 128,-1,42
 1177 449 1177 449 1175 380 c 0,43,44
 1171 189 1171 189 1033 81.5 c 128,-1,45
 895 -26 895 -26 665 -23 c 1,46,47
 508 -19 508 -19 369.5 43.5 c 128,-1,48
 231 106 231 106 152 209 c 1,0,-1
EndSplineSet
EndChar

StartChar: T
Encoding: 84 84 55
Width: 1203
Flags: W
LayerCount: 2
Fore
SplineSet
84 1446 m 1,0,-1
 1119 1446 l 1,1,-1
 1119 1281 l 1,2,-1
 702 1281 l 1,3,-1
 702 0 l 1,4,-1
 501 0 l 1,5,-1
 501 1281 l 1,6,-1
 84 1281 l 1,7,-1
 84 1446 l 1,0,-1
EndSplineSet
EndChar

StartChar: U
Encoding: 85 85 56
Width: 1526
Flags: W
LayerCount: 2
Fore
SplineSet
202 473 m 2,0,-1
 202 1446 l 1,1,-1
 404 1446 l 1,2,-1
 404 452 l 2,3,4
 404 374 404 374 423.5 316.5 c 128,-1,5
 443 259 443 259 475.5 224 c 128,-1,6
 508 189 508 189 557 168 c 128,-1,7
 606 147 606 147 657 139.5 c 128,-1,8
 708 132 708 132 773 132 c 128,-1,9
 838 132 838 132 887.5 139.5 c 128,-1,10
 937 147 937 147 983 168 c 128,-1,11
 1029 189 1029 189 1058 224 c 128,-1,12
 1087 259 1087 259 1104.5 316.5 c 128,-1,13
 1122 374 1122 374 1122 452 c 2,14,-1
 1122 1446 l 1,15,-1
 1324 1446 l 1,16,-1
 1324 473 l 2,17,18
 1324 387 1324 387 1310.5 318 c 128,-1,19
 1297 249 1297 249 1260 183 c 128,-1,20
 1223 117 1223 117 1163 73 c 128,-1,21
 1103 29 1103 29 1004 2.5 c 128,-1,22
 905 -24 905 -24 773 -24 c 0,23,24
 635 -24 635 -24 532.5 2.5 c 128,-1,25
 430 29 430 29 367.5 72.5 c 128,-1,26
 305 116 305 116 267 182 c 128,-1,27
 229 248 229 248 215.5 317 c 128,-1,28
 202 386 202 386 202 473 c 2,0,-1
EndSplineSet
EndChar

StartChar: V
Encoding: 86 86 57
Width: 1389
Flags: W
LayerCount: 2
Fore
SplineSet
92 1446 m 1,0,-1
 299 1446 l 1,1,-1
 697 294 l 1,2,-1
 1095 1446 l 1,3,-1
 1304 1446 l 1,4,-1
 784 0 l 1,5,-1
 607 0 l 1,6,-1
 92 1446 l 1,0,-1
EndSplineSet
EndChar

StartChar: W
Encoding: 87 87 58
Width: 1956
Flags: W
LayerCount: 2
Fore
SplineSet
112 1446 m 1,0,-1
 289 1446 l 1,1,-1
 571 346 l 1,2,-1
 863 1446 l 1,3,-1
 1078 1446 l 1,4,-1
 1384 346 l 1,5,-1
 1662 1446 l 1,6,-1
 1845 1446 l 1,7,-1
 1464 0 l 1,8,-1
 1312 0 l 1,9,-1
 974 1217 l 1,10,-1
 642 0 l 1,11,-1
 490 0 l 1,12,-1
 112 1446 l 1,0,-1
EndSplineSet
EndChar

StartChar: X
Encoding: 88 88 59
Width: 1334
Flags: W
LayerCount: 2
Fore
SplineSet
774 734 m 1,0,-1
 1243 0 l 1,1,-1
 1025 0 l 1,2,-1
 668 568 l 1,3,-1
 306 0 l 1,4,-1
 110 0 l 1,5,-1
 566 731 l 1,6,-1
 117 1446 l 1,7,-1
 320 1446 l 1,8,-1
 670 898 l 1,9,-1
 1011 1446 l 1,10,-1
 1228 1446 l 1,11,-1
 774 734 l 1,0,-1
EndSplineSet
EndChar

StartChar: Y
Encoding: 89 89 60
Width: 1318
Flags: W
LayerCount: 2
Fore
SplineSet
65 1446 m 1,0,-1
 266 1446 l 1,1,-1
 673 744 l 1,2,-1
 1066 1446 l 1,3,-1
 1261 1446 l 1,4,-1
 773 568 l 1,5,-1
 773 0 l 1,6,-1
 572 0 l 1,7,-1
 572 568 l 1,8,-1
 65 1446 l 1,0,-1
EndSplineSet
EndChar

StartChar: Z
Encoding: 90 90 61
Width: 1253
Flags: W
LayerCount: 2
Fore
SplineSet
211 1446 m 1,0,-1
 1083 1446 l 1,1,-1
 1083 1295 l 1,2,-1
 403 165 l 1,3,-1
 1095 165 l 1,4,-1
 1095 0 l 1,5,-1
 181 0 l 1,6,-1
 181 150 l 1,7,-1
 862 1281 l 1,8,-1
 211 1281 l 1,9,-1
 211 1446 l 1,0,-1
EndSplineSet
EndChar

StartChar: bracketleft
Encoding: 91 91 62
Width: 827
Flags: W
LayerCount: 2
Fore
SplineSet
455 58 m 1,0,-1
 645 58 l 1,1,-1
 645 -76 l 1,2,-1
 224 -76 l 1,3,-1
 224 1529 l 1,4,-1
 645 1529 l 1,5,-1
 645 1396 l 1,6,-1
 455 1396 l 1,7,-1
 455 58 l 1,0,-1
EndSplineSet
EndChar

StartChar: backslash
Encoding: 92 92 63
Width: 979
Flags: W
LayerCount: 2
Fore
SplineSet
665 1446 m 1,0,-1
 858 1446 l 1,1,-1
 320 0 l 1,2,-1
 125 0 l 1,3,-1
 665 1446 l 1,0,-1
EndSplineSet
EndChar

StartChar: bracketright
Encoding: 93 93 64
Width: 804
Flags: W
LayerCount: 2
Fore
SplineSet
182 1496 m 1,0,-1
 580 1496 l 1,1,-1
 580 -76 l 1,2,-1
 182 -76 l 1,3,-1
 182 38 l 1,4,-1
 369 38 l 1,5,-1
 369 1382 l 1,6,-1
 182 1382 l 1,7,-1
 182 1496 l 1,0,-1
EndSplineSet
EndChar

StartChar: asciicircum
Encoding: 94 94 65
Width: 1257
Flags: W
LayerCount: 2
Fore
SplineSet
735 1283 m 1,0,-1
 1103 626 l 1,1,-1
 910 626 l 1,2,-1
 628 1161 l 1,3,-1
 348 626 l 1,4,-1
 154 626 l 1,5,-1
 513 1283 l 1,6,-1
 735 1283 l 1,0,-1
EndSplineSet
EndChar

StartChar: underscore
Encoding: 95 95 66
Width: 929
Flags: W
LayerCount: 2
Fore
SplineSet
915 89 m 1,0,-1
 915 -82 l 1,1,-1
 14 -82 l 1,2,-1
 14 89 l 1,3,-1
 915 89 l 1,0,-1
EndSplineSet
EndChar

StartChar: grave
Encoding: 96 96 67
Width: 616
Flags: W
LayerCount: 2
Fore
SplineSet
115 1496 m 1,0,-1
 340 1496 l 1,1,-1
 478 1155 l 1,2,-1
 372 1155 l 1,3,-1
 115 1496 l 1,0,-1
EndSplineSet
EndChar

StartChar: a
Encoding: 97 97 68
Width: 1169
Flags: W
LayerCount: 2
Fore
SplineSet
1109 128 m 1,0,-1
 1109 -8 l 1,1,2
 1081 -12 1081 -12 1029 -12 c 0,3,4
 929 -12 929 -12 883 24.5 c 128,-1,5
 837 61 837 61 811 142 c 1,6,7
 705 -20 705 -20 480 -20 c 0,8,9
 319 -20 319 -20 230.5 66.5 c 128,-1,10
 142 153 142 153 142 283 c 0,11,12
 142 340 142 340 157 380.5 c 128,-1,13
 172 421 172 421 214.5 460.5 c 128,-1,14
 257 500 257 500 339 533 c 128,-1,15
 421 566 421 566 548 597 c 0,16,17
 556 599 556 599 573 603 c 0,18,19
 617 613 617 613 639.5 619 c 128,-1,20
 662 625 662 625 696 638.5 c 128,-1,21
 730 652 730 652 747 665.5 c 128,-1,22
 764 679 764 679 777 701.5 c 128,-1,23
 790 724 790 724 790 753 c 0,24,25
 790 784 790 784 788.5 803 c 128,-1,26
 787 822 787 822 776.5 851 c 128,-1,27
 766 880 766 880 747 897 c 128,-1,28
 728 914 728 914 689 927 c 128,-1,29
 650 940 650 940 595 940 c 0,30,31
 534 940 534 940 489.5 927.5 c 128,-1,32
 445 915 445 915 421.5 896.5 c 128,-1,33
 398 878 398 878 384.5 849.5 c 128,-1,34
 371 821 371 821 367.5 798 c 128,-1,35
 364 775 364 775 364 745 c 2,36,-1
 364 718 l 1,37,-1
 183 718 l 1,38,-1
 183 746 l 2,39,40
 183 905 183 905 289 992.5 c 128,-1,41
 395 1080 395 1080 601 1080 c 0,42,43
 703 1080 703 1080 777.5 1051.5 c 128,-1,44
 852 1023 852 1023 895 970.5 c 128,-1,45
 938 918 938 918 958 851 c 128,-1,46
 978 784 978 784 978 699 c 2,47,-1
 978 268 l 2,48,49
 978 187 978 187 1003.5 157.5 c 128,-1,50
 1029 128 1029 128 1109 128 c 1,0,-1
790 273 m 1,51,-1
 790 576 l 1,52,53
 735 521 735 521 563 477 c 0,54,55
 457 450 457 450 403.5 419 c 128,-1,56
 350 388 350 388 335.5 355 c 128,-1,57
 321 322 321 322 324 266 c 0,58,59
 328 189 328 189 378 151 c 128,-1,60
 428 113 428 113 509 113 c 0,61,62
 599 113 599 113 684 158 c 128,-1,63
 769 203 769 203 790 273 c 1,51,-1
EndSplineSet
EndChar

StartChar: b
Encoding: 98 98 69
Width: 1194
Flags: W
LayerCount: 2
Fore
SplineSet
365 874 m 1,0,-1
 365 188 l 1,1,2
 477 125 477 125 587 125 c 0,3,4
 702 125 702 125 779 181 c 128,-1,5
 856 237 856 237 856 332 c 2,6,-1
 856 750 l 2,7,8
 856 843 856 843 796 892.5 c 128,-1,9
 736 942 736 942 630 942 c 0,10,11
 514 942 514 942 365 874 c 1,0,-1
316 0 m 1,12,-1
 177 0 l 1,13,-1
 177 1446 l 1,14,-1
 365 1446 l 1,15,-1
 365 1014 l 1,16,17
 418 1044 418 1044 492.5 1064 c 128,-1,18
 567 1084 567 1084 639 1084 c 0,19,20
 836 1084 836 1084 940 989 c 128,-1,21
 1044 894 1044 894 1044 736 c 2,22,-1
 1044 352 l 2,23,24
 1044 188 1044 188 930.5 86 c 128,-1,25
 817 -16 817 -16 615 -16 c 0,26,27
 479 -16 479 -16 340 71 c 1,28,-1
 316 0 l 1,12,-1
EndSplineSet
EndChar

StartChar: c
Encoding: 99 99 70
Width: 1130
Flags: W
LayerCount: 2
Fore
SplineSet
828 679 m 1,0,-1
 828 774 l 2,1,2
 828 863 828 863 766 900.5 c 128,-1,3
 704 938 704 938 587 938 c 0,4,5
 471 938 471 938 404 894.5 c 128,-1,6
 337 851 337 851 337 757 c 2,7,-1
 337 308 l 2,8,9
 337 207 337 207 402.5 164 c 128,-1,10
 468 121 468 121 587 121 c 0,11,12
 703 121 703 121 765.5 156.5 c 128,-1,13
 828 192 828 192 828 283 c 2,14,-1
 828 356 l 1,15,-1
 1010 356 l 1,16,-1
 1010 289 l 2,17,18
 1010 213 1010 213 990 158 c 128,-1,19
 970 103 970 103 922.5 62 c 128,-1,20
 875 21 875 21 791.5 0.5 c 128,-1,21
 708 -20 708 -20 587 -20 c 0,22,23
 361 -20 361 -20 255.5 69 c 128,-1,24
 150 158 150 158 150 314 c 2,25,-1
 150 751 l 2,26,27
 150 901 150 901 269.5 990.5 c 128,-1,28
 389 1080 389 1080 587 1080 c 0,29,30
 789 1080 789 1080 899.5 1002 c 128,-1,31
 1010 924 1010 924 1010 768 c 2,32,-1
 1010 679 l 1,33,-1
 828 679 l 1,0,-1
EndSplineSet
EndChar

StartChar: d
Encoding: 100 100 71
Width: 1192
Flags: W
LayerCount: 2
Fore
SplineSet
827 189 m 1,0,-1
 827 896 l 1,1,2
 730 943 730 943 605 943 c 0,3,4
 487 943 487 943 412.5 896 c 128,-1,5
 338 849 338 849 338 756 c 2,6,-1
 338 314 l 2,7,8
 338 222 338 222 405.5 174 c 128,-1,9
 473 126 473 126 582 126 c 0,10,11
 655 126 655 126 721 145.5 c 128,-1,12
 787 165 787 165 827 189 c 1,0,-1
827 1446 m 1,13,-1
 1015 1446 l 1,14,-1
 1015 0 l 1,15,-1
 887 0 l 1,16,-1
 856 61 l 1,17,18
 809 27 809 27 729.5 5.5 c 128,-1,19
 650 -16 650 -16 570 -16 c 0,20,21
 351 -16 351 -16 250.5 75 c 128,-1,22
 150 166 150 166 150 328 c 2,23,-1
 150 735 l 2,24,25
 150 899 150 899 264 991.5 c 128,-1,26
 378 1084 378 1084 603 1084 c 0,27,28
 717 1084 717 1084 827 1044 c 1,29,-1
 827 1446 l 1,13,-1
EndSplineSet
EndChar

StartChar: e
Encoding: 101 101 72
Width: 1138
Flags: W
LayerCount: 2
Fore
SplineSet
582 -20 m 0,0,1
 150 -20 150 -20 150 326 c 2,2,-1
 150 743 l 2,3,4
 150 896 150 896 263.5 988 c 128,-1,5
 377 1080 377 1080 582 1080 c 0,6,7
 785 1080 785 1080 889 996 c 128,-1,8
 993 912 993 912 993 758 c 2,9,-1
 993 506 l 1,10,-1
 338 506 l 1,11,-1
 338 310 l 2,12,13
 338 212 338 212 398 166.5 c 128,-1,14
 458 121 458 121 582 121 c 0,15,16
 696 121 696 121 753.5 155.5 c 128,-1,17
 811 190 811 190 811 282 c 2,18,-1
 811 336 l 1,19,-1
 993 336 l 1,20,-1
 993 297 l 2,21,22
 993 220 993 220 974.5 164.5 c 128,-1,23
 956 109 956 109 911 66 c 128,-1,24
 866 23 866 23 784.5 1.5 c 128,-1,25
 703 -20 703 -20 582 -20 c 0,0,1
338 633 m 1,26,-1
 811 633 l 1,27,-1
 811 778 l 2,28,29
 811 869 811 869 755 903.5 c 128,-1,30
 699 938 699 938 582 938 c 0,31,32
 464 938 464 938 401 896 c 128,-1,33
 338 854 338 854 338 760 c 2,34,-1
 338 633 l 1,26,-1
EndSplineSet
EndChar

StartChar: f
Encoding: 102 102 73
Width: 789
Flags: W
LayerCount: 2
Fore
SplineSet
576 1434 m 2,0,-1
 695 1434 l 1,1,-1
 695 1301 l 1,2,-1
 611 1301 l 2,3,4
 572 1301 572 1301 545 1294 c 128,-1,5
 518 1287 518 1287 503 1276.5 c 128,-1,6
 488 1266 488 1266 480.5 1247 c 128,-1,7
 473 1228 473 1228 471.5 1211.5 c 128,-1,8
 470 1195 470 1195 470 1168 c 2,9,-1
 470 1060 l 1,10,-1
 697 1060 l 1,11,-1
 697 943 l 1,12,-1
 470 943 l 1,13,-1
 470 0 l 1,14,-1
 282 0 l 1,15,-1
 282 943 l 1,16,-1
 105 943 l 1,17,-1
 105 1060 l 1,18,-1
 282 1060 l 1,19,-1
 282 1137 l 2,20,21
 282 1290 282 1290 349.5 1362 c 128,-1,22
 417 1434 417 1434 576 1434 c 2,0,-1
EndSplineSet
EndChar

StartChar: g
Encoding: 103 103 74
Width: 1186
Flags: W
LayerCount: 2
Fore
SplineSet
585 935 m 0,0,1
 469 935 469 935 403.5 888.5 c 128,-1,2
 338 842 338 842 338 748 c 2,3,-1
 338 333 l 2,4,5
 338 167 338 167 582 167 c 0,6,7
 726 167 726 167 829 249 c 1,8,-1
 829 810 l 2,9,10
 829 859 829 859 765.5 897 c 128,-1,11
 702 935 702 935 585 935 c 0,0,1
1017 30 m 2,12,13
 1017 -142 1017 -142 914.5 -246 c 128,-1,14
 812 -350 812 -350 610 -350 c 0,15,16
 378 -350 378 -350 252 -282 c 1,17,-1
 304 -143 l 1,18,19
 339 -166 339 -166 426 -188 c 128,-1,20
 513 -210 513 -210 604 -210 c 0,21,22
 659 -210 659 -210 701 -197.5 c 128,-1,23
 743 -185 743 -185 766.5 -166.5 c 128,-1,24
 790 -148 790 -148 805 -122 c 128,-1,25
 820 -96 820 -96 824.5 -72.5 c 128,-1,26
 829 -49 829 -49 829 -23 c 2,27,-1
 829 110 l 1,28,29
 787 71 787 71 715 48 c 128,-1,30
 643 25 643 25 583 25 c 0,31,32
 378 25 378 25 264 112 c 128,-1,33
 150 199 150 199 150 362 c 2,34,-1
 150 728 l 2,35,36
 150 892 150 892 252.5 984 c 128,-1,37
 355 1076 355 1076 557 1076 c 0,38,39
 637 1076 637 1076 721.5 1044.5 c 128,-1,40
 806 1013 806 1013 829 975 c 1,41,-1
 829 1060 l 1,42,-1
 1017 1060 l 1,43,-1
 1017 30 l 2,12,13
EndSplineSet
EndChar

StartChar: h
Encoding: 104 104 75
Width: 1214
Flags: W
LayerCount: 2
Fore
SplineSet
177 0 m 1,0,-1
 177 1446 l 1,1,-1
 365 1446 l 1,2,-1
 365 961 l 1,3,4
 471 1084 471 1084 682 1084 c 0,5,6
 867 1084 867 1084 959.5 997 c 128,-1,7
 1052 910 1052 910 1052 774 c 2,8,-1
 1052 0 l 1,9,-1
 864 0 l 1,10,-1
 864 787 l 2,11,12
 864 863 864 863 800.5 902.5 c 128,-1,13
 737 942 737 942 634 942 c 0,14,15
 502 942 502 942 433.5 891 c 128,-1,16
 365 840 365 840 365 759 c 2,17,-1
 365 0 l 1,18,-1
 177 0 l 1,0,-1
EndSplineSet
EndChar

StartChar: i
Encoding: 105 105 76
Width: 556
Flags: W
LayerCount: 2
Fore
SplineSet
182 1434 m 1,0,-1
 387 1434 l 1,1,-1
 387 1233 l 1,2,-1
 182 1233 l 1,3,-1
 182 1434 l 1,0,-1
193 1060 m 1,4,-1
 380 1060 l 1,5,-1
 380 0 l 1,6,-1
 193 0 l 1,7,-1
 193 1060 l 1,4,-1
EndSplineSet
EndChar

StartChar: j
Encoding: 106 106 77
Width: 596
Flags: W
LayerCount: 2
Fore
SplineSet
234 1434 m 1,0,-1
 421 1434 l 1,1,-1
 421 1255 l 1,2,-1
 234 1255 l 1,3,-1
 234 1434 l 1,0,-1
238 1061 m 1,4,-1
 422 1061 l 1,5,-1
 422 9 l 2,6,7
 422 -113 422 -113 347 -182 c 128,-1,8
 272 -251 272 -251 140 -251 c 2,9,-1
 34 -251 l 1,10,-1
 34 -117 l 1,11,-1
 104 -117 l 2,12,13
 238 -117 238 -117 238 26 c 2,14,-1
 238 1061 l 1,4,-1
EndSplineSet
EndChar

StartChar: k
Encoding: 107 107 78
Width: 1131
Flags: W
LayerCount: 2
Fore
SplineSet
177 1446 m 1,0,-1
 365 1446 l 1,1,-1
 365 510 l 1,2,3
 462 614 462 614 638.5 806.5 c 128,-1,4
 815 999 815 999 871 1060 c 1,5,-1
 1079 1060 l 1,6,-1
 657 583 l 1,7,-1
 1089 0 l 1,8,-1
 880 0 l 1,9,-1
 511 498 l 1,10,-1
 365 354 l 1,11,-1
 365 0 l 1,12,-1
 177 0 l 1,13,-1
 177 1446 l 1,0,-1
EndSplineSet
EndChar

StartChar: l
Encoding: 108 108 79
Width: 704
Flags: W
LayerCount: 2
Fore
SplineSet
181 362 m 2,0,-1
 181 1446 l 1,1,-1
 369 1446 l 1,2,-1
 369 360 l 2,3,4
 369 247 369 247 418.5 196 c 128,-1,5
 468 145 468 145 602 145 c 2,6,-1
 631 145 l 1,7,-1
 631 0 l 1,8,-1
 559 0 l 2,9,10
 373 0 373 0 277 81.5 c 128,-1,11
 181 163 181 163 181 362 c 2,0,-1
EndSplineSet
EndChar

StartChar: m
Encoding: 109 109 80
Width: 1838
Flags: W
LayerCount: 2
Fore
SplineSet
177 0 m 1,0,-1
 177 1060 l 1,1,-1
 365 1060 l 1,2,-1
 365 957 l 1,3,4
 471 1080 471 1080 669 1080 c 0,5,6
 896 1080 896 1080 980 941 c 1,7,-1
 1005 965 l 1,8,9
 1120 1080 1120 1080 1327 1080 c 0,10,11
 1422 1080 1422 1080 1491.5 1055.5 c 128,-1,12
 1561 1031 1561 1031 1600 987.5 c 128,-1,13
 1639 944 1639 944 1657.5 890 c 128,-1,14
 1676 836 1676 836 1676 770 c 2,15,-1
 1676 0 l 1,16,-1
 1488 0 l 1,17,-1
 1488 783 l 2,18,19
 1488 860 1488 860 1433.5 899 c 128,-1,20
 1379 938 1379 938 1279 938 c 0,21,22
 1148 938 1148 938 1085.5 887.5 c 128,-1,23
 1023 837 1023 837 1023 755 c 2,24,-1
 1023 0 l 1,25,-1
 835 0 l 1,26,-1
 835 783 l 2,27,28
 835 860 835 860 778.5 899 c 128,-1,29
 722 938 722 938 621 938 c 0,30,31
 490 938 490 938 427.5 887.5 c 128,-1,32
 365 837 365 837 365 755 c 2,33,-1
 365 0 l 1,34,-1
 177 0 l 1,0,-1
EndSplineSet
EndChar

StartChar: n
Encoding: 110 110 81
Width: 1230
Flags: W
LayerCount: 2
Fore
SplineSet
190 0 m 1,0,-1
 190 1060 l 1,1,-1
 378 1060 l 1,2,-1
 378 957 l 1,3,4
 484 1080 484 1080 690 1080 c 0,5,6
 785 1080 785 1080 856 1055.5 c 128,-1,7
 927 1031 927 1031 969 987.5 c 128,-1,8
 1011 944 1011 944 1031 889.5 c 128,-1,9
 1051 835 1051 835 1051 770 c 2,10,-1
 1051 0 l 1,11,-1
 863 0 l 1,12,-1
 863 783 l 2,13,14
 863 859 863 859 803.5 898.5 c 128,-1,15
 744 938 744 938 642 938 c 0,16,17
 510 938 510 938 444 887 c 128,-1,18
 378 836 378 836 378 755 c 2,19,-1
 378 0 l 1,20,-1
 190 0 l 1,0,-1
EndSplineSet
EndChar

StartChar: o
Encoding: 111 111 82
Width: 1167
Flags: W
LayerCount: 2
Fore
SplineSet
829 763 m 2,0,1
 829 853 829 853 763.5 895.5 c 128,-1,2
 698 938 698 938 583 938 c 0,3,4
 338 938 338 938 338 763 c 2,5,-1
 338 301 l 2,6,7
 338 121 338 121 583 121 c 0,8,9
 695 121 695 121 762 164.5 c 128,-1,10
 829 208 829 208 829 301 c 2,11,-1
 829 763 l 2,0,1
1017 747 m 2,12,-1
 1017 317 l 2,13,14
 1017 241 1017 241 995 181.5 c 128,-1,15
 973 122 973 122 924 75.5 c 128,-1,16
 875 29 875 29 789 4.5 c 128,-1,17
 703 -20 703 -20 583 -20 c 0,18,19
 357 -20 357 -20 253.5 70 c 128,-1,20
 150 160 150 160 150 317 c 2,21,-1
 150 747 l 2,22,23
 150 897 150 897 268 988.5 c 128,-1,24
 386 1080 386 1080 583 1080 c 128,-1,25
 780 1080 780 1080 898.5 988.5 c 128,-1,26
 1017 897 1017 897 1017 747 c 2,12,-1
EndSplineSet
EndChar

StartChar: p
Encoding: 112 112 83
Width: 1194
Flags: W
LayerCount: 2
Fore
SplineSet
365 824 m 1,0,-1
 365 179 l 1,1,2
 475 117 475 117 603 117 c 0,3,4
 716 117 716 117 786 172.5 c 128,-1,5
 856 228 856 228 856 324 c 2,6,-1
 856 742 l 2,7,8
 856 834 856 834 787 884 c 128,-1,9
 718 934 718 934 610 934 c 0,10,11
 523 934 523 934 454.5 894.5 c 128,-1,12
 386 855 386 855 365 824 c 1,0,-1
365 -371 m 1,13,-1
 177 -371 l 1,14,-1
 177 1060 l 1,15,-1
 325 1060 l 1,16,-1
 347 980 l 1,17,18
 392 1020 392 1020 472 1048 c 128,-1,19
 552 1076 552 1076 639 1076 c 0,20,21
 836 1076 836 1076 940 981.5 c 128,-1,22
 1044 887 1044 887 1044 729 c 2,23,-1
 1044 344 l 2,24,25
 1044 180 1044 180 930.5 78 c 128,-1,26
 817 -24 817 -24 615 -24 c 0,27,28
 479 -24 479 -24 365 34 c 1,29,-1
 365 -371 l 1,13,-1
EndSplineSet
EndChar

StartChar: q
Encoding: 113 113 84
Width: 1194
Flags: W
LayerCount: 2
Fore
SplineSet
1017 -371 m 1,0,-1
 829 -371 l 1,1,-1
 829 47 l 1,2,3
 784 13 784 13 708.5 -5.5 c 128,-1,4
 633 -24 633 -24 570 -24 c 0,5,6
 370 -24 370 -24 260 67 c 128,-1,7
 150 158 150 158 150 314 c 2,8,-1
 150 728 l 2,9,10
 150 892 150 892 252.5 984 c 128,-1,11
 355 1076 355 1076 557 1076 c 0,12,13
 637 1076 637 1076 721.5 1044.5 c 128,-1,14
 806 1013 806 1013 829 975 c 1,15,-1
 829 1060 l 1,16,-1
 1017 1060 l 1,17,-1
 1017 -371 l 1,0,-1
585 935 m 0,18,19
 469 935 469 935 403.5 888.5 c 128,-1,20
 338 842 338 842 338 748 c 2,21,-1
 338 284 l 2,22,23
 338 118 338 118 582 118 c 0,24,25
 674 118 674 118 746 148.5 c 128,-1,26
 818 179 818 179 829 201 c 1,27,-1
 829 810 l 2,28,29
 829 859 829 859 765.5 897 c 128,-1,30
 702 935 702 935 585 935 c 0,18,19
EndSplineSet
EndChar

StartChar: r
Encoding: 114 114 85
Width: 779
Flags: W
LayerCount: 2
Fore
SplineSet
179 0 m 1,0,-1
 179 1060 l 1,1,-1
 367 1060 l 1,2,-1
 367 950 l 1,3,4
 404 1005 404 1005 522.5 1045 c 128,-1,5
 641 1085 641 1085 713 1075 c 1,6,-1
 707 914 l 1,7,8
 534 899 534 899 471 882 c 1,9,10
 384 857 384 857 367 812 c 1,11,-1
 367 0 l 1,12,-1
 179 0 l 1,0,-1
EndSplineSet
EndChar

StartChar: s
Encoding: 115 115 86
Width: 971
Flags: W
LayerCount: 2
Fore
SplineSet
123 150 m 1,0,-1
 216 259 l 1,1,2
 336 128 336 128 494 125 c 0,3,4
 593 124 593 124 641 159 c 128,-1,5
 689 194 689 194 697 270 c 1,6,7
 702 328 702 328 675.5 365.5 c 128,-1,8
 649 403 649 403 583 430 c 2,9,-1
 356 524 l 2,10,11
 245 570 245 570 190 637 c 128,-1,12
 135 704 135 704 139 817 c 0,13,14
 142 909 142 909 192.5 970 c 128,-1,15
 243 1031 243 1031 318 1056 c 128,-1,16
 393 1081 393 1081 490 1081 c 0,17,18
 716 1081 716 1081 842 930 c 1,19,-1
 766 823 l 1,20,21
 721 870 721 870 652.5 903 c 128,-1,22
 584 936 584 936 502 937 c 0,23,24
 420 939 420 939 369 909 c 128,-1,25
 318 879 318 879 315 825 c 0,26,27
 312 776 312 776 334 739.5 c 128,-1,28
 356 703 356 703 417 678 c 2,29,-1
 651 579 l 2,30,31
 723 548 723 548 767 513 c 128,-1,32
 811 478 811 478 837.5 418 c 128,-1,33
 864 358 864 358 862 273 c 0,34,35
 860 132 860 132 761.5 55 c 128,-1,36
 663 -22 663 -22 495 -20 c 1,37,38
 381 -17 381 -17 284 27.5 c 128,-1,39
 187 72 187 72 123 150 c 1,0,-1
EndSplineSet
EndChar

StartChar: t
Encoding: 116 116 87
Width: 814
Flags: W
LayerCount: 2
Fore
SplineSet
599 -5 m 2,0,1
 423 -5 423 -5 332.5 81.5 c 128,-1,2
 242 168 242 168 242 323 c 2,3,-1
 242 944 l 1,4,-1
 65 944 l 1,5,-1
 65 1061 l 1,6,-1
 249 1061 l 1,7,-1
 272 1388 l 1,8,-1
 429 1388 l 1,9,-1
 429 1061 l 1,10,-1
 707 1061 l 1,11,-1
 707 944 l 1,12,-1
 429 944 l 1,13,-1
 429 315 l 2,14,15
 429 222 429 222 472.5 181.5 c 128,-1,16
 516 141 516 141 626 141 c 2,17,-1
 717 141 l 1,18,-1
 717 -5 l 1,19,-1
 599 -5 l 2,0,1
EndSplineSet
EndChar

StartChar: u
Encoding: 117 117 88
Width: 1189
Flags: W
LayerCount: 2
Fore
SplineSet
1012 1060 m 1,0,-1
 1012 0 l 1,1,-1
 824 0 l 1,2,-1
 824 103 l 1,3,4
 718 -20 718 -20 516 -20 c 0,5,6
 421 -20 421 -20 351 4.5 c 128,-1,7
 281 29 281 29 240.5 72.5 c 128,-1,8
 200 116 200 116 181 170 c 128,-1,9
 162 224 162 224 162 290 c 2,10,-1
 162 1060 l 1,11,-1
 350 1060 l 1,12,-1
 350 285 l 2,13,14
 350 207 350 207 407 164.5 c 128,-1,15
 464 122 464 122 564 122 c 0,16,17
 693 122 693 122 758.5 173 c 128,-1,18
 824 224 824 224 824 297 c 2,19,-1
 824 1060 l 1,20,-1
 1012 1060 l 1,0,-1
EndSplineSet
EndChar

StartChar: v
Encoding: 118 118 89
Width: 1140
Flags: W
LayerCount: 2
Fore
SplineSet
691 0 m 1,0,-1
 483 0 l 1,1,-1
 90 1060 l 1,2,-1
 279 1060 l 1,3,-1
 590 194 l 1,4,-1
 866 1060 l 1,5,-1
 1050 1060 l 1,6,-1
 691 0 l 1,0,-1
EndSplineSet
EndChar

StartChar: w
Encoding: 119 119 90
Width: 1597
Flags: W
LayerCount: 2
Fore
SplineSet
550 0 m 1,0,-1
 362 0 l 1,1,-1
 78 1060 l 1,2,-1
 249 1060 l 1,3,-1
 459 209 l 1,4,-1
 681 1060 l 1,5,-1
 928 1060 l 1,6,-1
 1138 209 l 1,7,-1
 1361 1060 l 1,8,-1
 1527 1060 l 1,9,-1
 1230 0 l 1,10,-1
 1041 0 l 1,11,-1
 801 894 l 1,12,-1
 550 0 l 1,0,-1
EndSplineSet
EndChar

StartChar: x
Encoding: 120 120 91
Width: 1049
Flags: W
LayerCount: 2
Fore
SplineSet
80 1060 m 1,0,-1
 262 1060 l 1,1,-1
 527 666 l 1,2,-1
 796 1060 l 1,3,-1
 970 1060 l 1,4,-1
 615 535 l 1,5,-1
 975 0 l 1,6,-1
 799 0 l 1,7,-1
 526 403 l 1,8,-1
 254 0 l 1,9,-1
 74 0 l 1,10,-1
 437 533 l 1,11,-1
 80 1060 l 1,0,-1
EndSplineSet
EndChar

StartChar: y
Encoding: 121 121 92
Width: 1148
Flags: W
LayerCount: 2
Fore
SplineSet
229 -322 m 1,0,-1
 229 -175 l 1,1,-1
 327 -175 l 2,2,3
 397 -175 397 -175 446.5 -137 c 128,-1,4
 496 -99 496 -99 524 4 c 1,5,-1
 71 1060 l 1,6,-1
 270 1060 l 1,7,-1
 610 216 l 1,8,-1
 915 1060 l 1,9,-1
 1105 1060 l 1,10,-1
 723 45 l 1,11,12
 651 -167 651 -167 573 -244.5 c 128,-1,13
 495 -322 495 -322 334 -322 c 2,14,-1
 229 -322 l 1,0,-1
EndSplineSet
EndChar

StartChar: z
Encoding: 122 122 93
Width: 964
Flags: W
LayerCount: 2
Fore
SplineSet
176 1060 m 1,0,-1
 842 1060 l 1,1,-1
 842 945 l 1,2,-1
 353 124 l 1,3,-1
 850 124 l 1,4,-1
 850 0 l 1,5,-1
 158 0 l 1,6,-1
 158 118 l 1,7,-1
 644 937 l 1,8,-1
 176 937 l 1,9,-1
 176 1060 l 1,0,-1
EndSplineSet
EndChar

StartChar: bar
Encoding: 124 124 95
Width: 666
Flags: W
LayerCount: 2
Fore
SplineSet
432 1555 m 1,0,-1
 432 -167 l 1,1,-1
 254 -167 l 1,2,-1
 254 1555 l 1,3,-1
 432 1555 l 1,0,-1
EndSplineSet
EndChar

StartChar: exclamdown
Encoding: 161 161 97
Width: 468
Flags: W
LayerCount: 2
Fore
SplineSet
349 878 m 1,0,-1
 144 878 l 1,1,-1
 144 1084 l 1,2,-1
 349 1084 l 1,3,-1
 349 878 l 1,0,-1
347 -362 m 1,4,-1
 145 -362 l 1,5,-1
 214 713 l 1,6,-1
 290 713 l 1,7,-1
 347 -362 l 1,4,-1
EndSplineSet
EndChar

StartChar: cent
Encoding: 162 162 98
Width: 1098
Flags: W
LayerCount: 2
Fore
SplineSet
809 694 m 1,0,-1
 809 792 l 2,1,2
 809 883 809 883 745.5 921 c 128,-1,3
 682 959 682 959 565 959 c 0,4,5
 449 959 449 959 382 914.5 c 128,-1,6
 315 870 315 870 315 774 c 2,7,-1
 315 315 l 2,8,9
 315 212 315 212 380.5 168 c 128,-1,10
 446 124 446 124 565 124 c 0,11,12
 681 124 681 124 745 160 c 128,-1,13
 809 196 809 196 809 289 c 2,14,-1
 809 364 l 1,15,-1
 991 364 l 1,16,-1
 991 309 l 2,17,18
 991 161 991 161 910.5 78 c 128,-1,19
 830 -5 830 -5 637 -18 c 1,20,-1
 637 -205 l 1,21,-1
 500 -205 l 1,22,-1
 500 -18 l 1,23,24
 307 -5 307 -5 217.5 84.5 c 128,-1,25
 128 174 128 174 128 321 c 2,26,-1
 128 768 l 2,27,28
 128 908 128 908 228.5 997 c 128,-1,29
 329 1086 329 1086 500 1101 c 1,30,-1
 500 1275 l 1,31,-1
 637 1275 l 1,32,-1
 637 1101 l 1,33,34
 805 1086 805 1086 898 1001.5 c 128,-1,35
 991 917 991 917 991 771 c 2,36,-1
 991 694 l 1,37,-1
 809 694 l 1,0,-1
EndSplineSet
EndChar

StartChar: sterling
Encoding: 163 163 99
Width: 1169
Flags: W
LayerCount: 2
Fore
SplineSet
887 1241 m 1,0,1
 881 1244 881 1244 849 1261.5 c 128,-1,2
 817 1279 817 1279 794.5 1288.5 c 128,-1,3
 772 1298 772 1298 726.5 1308 c 128,-1,4
 681 1318 681 1318 630 1318 c 0,5,6
 493 1318 493 1318 435.5 1248.5 c 128,-1,7
 378 1179 378 1179 366 1031 c 2,8,-1
 348 809 l 1,9,-1
 680 809 l 1,10,-1
 680 668 l 1,11,-1
 337 668 l 1,12,-1
 296 162 l 1,13,-1
 922 162 l 1,14,-1
 922 0 l 1,15,-1
 95 0 l 1,16,-1
 144 668 l 1,17,-1
 0 668 l 1,18,-1
 0 809 l 1,19,-1
 154 809 l 1,20,-1
 171 1035 l 1,21,22
 185 1253 185 1253 292 1368.5 c 128,-1,23
 399 1484 399 1484 631 1484 c 0,24,25
 671 1484 671 1484 709 1479 c 128,-1,26
 747 1474 747 1474 770.5 1469.5 c 128,-1,27
 794 1465 794 1465 826.5 1452 c 128,-1,28
 859 1439 859 1439 868.5 1435 c 128,-1,29
 878 1431 878 1431 909.5 1413.5 c 128,-1,30
 941 1396 941 1396 942 1396 c 2,31,-1
 887 1241 l 1,0,1
EndSplineSet
EndChar

StartChar: brokenbar
Encoding: 166 166 102
Width: 674
Flags: W
LayerCount: 2
Fore
SplineSet
432 1555 m 1,0,-1
 432 848 l 1,1,-1
 254 848 l 1,2,-1
 254 1555 l 1,3,-1
 432 1555 l 1,0,-1
432 513 m 1,4,-1
 432 -167 l 1,5,-1
 254 -167 l 1,6,-1
 254 513 l 1,7,-1
 432 513 l 1,4,-1
EndSplineSet
EndChar

StartChar: dieresis
Encoding: 168 168 103
Width: 956
Flags: W
LayerCount: 2
Fore
SplineSet
620 1265 m 1,0,-1
 620 1446 l 1,1,-1
 826 1446 l 1,2,-1
 826 1265 l 1,3,-1
 620 1265 l 1,0,-1
117 1265 m 1,4,-1
 117 1446 l 1,5,-1
 323 1446 l 1,6,-1
 323 1265 l 1,7,-1
 117 1265 l 1,4,-1
EndSplineSet
EndChar

StartChar: copyright
Encoding: 169 169 104
Width: 1865
Flags: W
LayerCount: 2
Fore
SplineSet
934 82 m 0,0,1
 1069 82 1069 82 1189.5 131 c 128,-1,2
 1310 180 1310 180 1396 264.5 c 128,-1,3
 1482 349 1482 349 1532.5 468 c 128,-1,4
 1583 587 1583 587 1583 722 c 0,5,6
 1583 901 1583 901 1497.5 1048 c 128,-1,7
 1412 1195 1412 1195 1263.5 1278 c 128,-1,8
 1115 1361 1115 1361 934 1361 c 0,9,10
 754 1361 754 1361 605.5 1278 c 128,-1,11
 457 1195 457 1195 371 1048 c 128,-1,12
 285 901 285 901 285 722 c 128,-1,13
 285 543 285 543 371 395.5 c 128,-1,14
 457 248 457 248 605.5 165 c 128,-1,15
 754 82 754 82 934 82 c 0,0,1
932 -14 m 0,16,17
 779 -14 779 -14 640 42.5 c 128,-1,18
 501 99 501 99 399 196 c 128,-1,19
 297 293 297 293 236.5 430.5 c 128,-1,20
 176 568 176 568 176 722 c 0,21,22
 176 875 176 875 236.5 1012 c 128,-1,23
 297 1149 297 1149 399 1246 c 128,-1,24
 501 1343 501 1343 640 1399.5 c 128,-1,25
 779 1456 779 1456 932 1456 c 0,26,27
 1086 1456 1086 1456 1225.5 1399.5 c 128,-1,28
 1365 1343 1365 1343 1467 1246 c 128,-1,29
 1569 1149 1569 1149 1629 1012 c 128,-1,30
 1689 875 1689 875 1689 722 c 0,31,32
 1689 568 1689 568 1629 431 c 128,-1,33
 1569 294 1569 294 1467 196.5 c 128,-1,34
 1365 99 1365 99 1225.5 42.5 c 128,-1,35
 1086 -14 1086 -14 932 -14 c 0,16,17
1152 836 m 1,36,-1
 1152 890 l 2,37,38
 1152 1003 1152 1003 1104.5 1047 c 128,-1,39
 1057 1091 1057 1091 942 1091 c 0,40,41
 824 1091 824 1091 767.5 1045.5 c 128,-1,42
 711 1000 711 1000 711 890 c 2,43,-1
 711 571 l 2,44,45
 711 462 711 462 767 419 c 128,-1,46
 823 376 823 376 943 376 c 0,47,48
 1060 376 1060 376 1106 417.5 c 128,-1,49
 1152 459 1152 459 1152 571 c 2,50,-1
 1152 632 l 1,51,-1
 1268 632 l 1,52,-1
 1268 598 l 2,53,54
 1268 541 1268 541 1261 497.5 c 128,-1,55
 1254 454 1254 454 1233 413 c 128,-1,56
 1212 372 1212 372 1177 345.5 c 128,-1,57
 1142 319 1142 319 1083 303 c 128,-1,58
 1024 287 1024 287 943 287 c 0,59,60
 838 287 838 287 767 308.5 c 128,-1,61
 696 330 696 330 658.5 372.5 c 128,-1,62
 621 415 621 415 606 466.5 c 128,-1,63
 591 518 591 518 591 590 c 2,64,-1
 591 868 l 2,65,66
 591 942 591 942 606 995 c 128,-1,67
 621 1048 621 1048 658 1092.5 c 128,-1,68
 695 1137 695 1137 766 1159.5 c 128,-1,69
 837 1182 837 1182 942 1182 c 0,70,71
 1042 1182 1042 1182 1109 1158.5 c 128,-1,72
 1176 1135 1176 1135 1209.5 1088.5 c 128,-1,73
 1243 1042 1243 1042 1255.5 989 c 128,-1,74
 1268 936 1268 936 1268 861 c 2,75,-1
 1268 836 l 1,76,-1
 1152 836 l 1,36,-1
EndSplineSet
EndChar

StartChar: logicalnot
Encoding: 172 172 107
Width: 864
Flags: W
LayerCount: 2
Fore
SplineSet
721 692 m 1,0,-1
 721 333 l 1,1,-1
 589 333 l 1,2,-1
 589 556 l 1,3,-1
 98 556 l 1,4,-1
 98 692 l 1,5,-1
 721 692 l 1,0,-1
EndSplineSet
EndChar

StartChar: registered
Encoding: 174 174 109
Width: 1857
Flags: W
LayerCount: 2
Fore
SplineSet
930 82 m 0,0,1
 1065 82 1065 82 1185.5 131 c 128,-1,2
 1306 180 1306 180 1392 264.5 c 128,-1,3
 1478 349 1478 349 1528.5 468 c 128,-1,4
 1579 587 1579 587 1579 722 c 0,5,6
 1579 901 1579 901 1493.5 1048 c 128,-1,7
 1408 1195 1408 1195 1259.5 1278 c 128,-1,8
 1111 1361 1111 1361 930 1361 c 0,9,10
 750 1361 750 1361 601.5 1278 c 128,-1,11
 453 1195 453 1195 367 1048 c 128,-1,12
 281 901 281 901 281 722 c 128,-1,13
 281 543 281 543 367 395.5 c 128,-1,14
 453 248 453 248 601.5 165 c 128,-1,15
 750 82 750 82 930 82 c 0,0,1
928 -14 m 0,16,17
 775 -14 775 -14 636 42.5 c 128,-1,18
 497 99 497 99 395 196 c 128,-1,19
 293 293 293 293 232.5 430.5 c 128,-1,20
 172 568 172 568 172 722 c 0,21,22
 172 875 172 875 232.5 1012 c 128,-1,23
 293 1149 293 1149 395 1246 c 128,-1,24
 497 1343 497 1343 636 1399.5 c 128,-1,25
 775 1456 775 1456 928 1456 c 0,26,27
 1082 1456 1082 1456 1221.5 1399.5 c 128,-1,28
 1361 1343 1361 1343 1463 1246 c 128,-1,29
 1565 1149 1565 1149 1625 1012 c 128,-1,30
 1685 875 1685 875 1685 722 c 0,31,32
 1685 568 1685 568 1625 431 c 128,-1,33
 1565 294 1565 294 1463 196.5 c 128,-1,34
 1361 99 1361 99 1221.5 42.5 c 128,-1,35
 1082 -14 1082 -14 928 -14 c 0,16,17
747 1068 m 1,36,-1
 747 730 l 1,37,-1
 1014 730 l 2,38,39
 1148 730 1148 730 1150 865 c 1,40,-1
 1150 907 l 2,41,42
 1150 1068 1150 1068 1023 1068 c 2,43,-1
 747 1068 l 1,36,-1
616 307 m 1,44,-1
 616 1159 l 1,45,-1
 1019 1159 l 2,46,47
 1276 1159 1276 1159 1282 914 c 1,48,-1
 1282 882 l 2,49,50
 1282 695 1282 695 1130 654 c 1,51,-1
 1314 307 l 1,52,-1
 1186 307 l 1,53,-1
 1006 640 l 1,54,-1
 747 640 l 1,55,-1
 747 307 l 1,56,-1
 616 307 l 1,44,-1
EndSplineSet
EndChar

StartChar: macron
Encoding: 175 175 110
Width: 472
Flags: W
LayerCount: 2
Fore
SplineSet
37 1351 m 1,0,-1
 438 1351 l 1,1,-1
 438 1199 l 1,2,-1
 37 1199 l 1,3,-1
 37 1351 l 1,0,-1
EndSplineSet
EndChar

StartChar: degree
Encoding: 176 176 111
Width: 1036
Flags: W
LayerCount: 2
Fore
SplineSet
866 1123 m 0,0,1
 866 960 866 960 780 879.5 c 128,-1,2
 694 799 694 799 489 799 c 0,3,4
 332 799 332 799 246 892 c 128,-1,5
 160 985 160 985 160 1122 c 0,6,7
 160 1211 160 1211 195.5 1282.5 c 128,-1,8
 231 1354 231 1354 307.5 1399.5 c 128,-1,9
 384 1445 384 1445 490 1445 c 0,10,11
 693 1445 693 1445 779.5 1365 c 128,-1,12
 866 1285 866 1285 866 1123 c 0,0,1
490 1360 m 0,13,14
 429 1360 429 1360 383 1337.5 c 128,-1,15
 337 1315 337 1315 312.5 1278 c 128,-1,16
 288 1241 288 1241 276.5 1202 c 128,-1,17
 265 1163 265 1163 265 1123 c 0,18,19
 265 1091 265 1091 271.5 1060 c 128,-1,20
 278 1029 278 1029 294.5 996.5 c 128,-1,21
 311 964 311 964 336 940 c 128,-1,22
 361 916 361 916 400.5 900.5 c 128,-1,23
 440 885 440 885 490 885 c 0,24,25
 552 885 552 885 598.5 907.5 c 128,-1,26
 645 930 645 930 669.5 967 c 128,-1,27
 694 1004 694 1004 705.5 1043 c 128,-1,28
 717 1082 717 1082 717 1122 c 0,29,30
 717 1154 717 1154 710.5 1185 c 128,-1,31
 704 1216 704 1216 687.5 1248.5 c 128,-1,32
 671 1281 671 1281 646 1305 c 128,-1,33
 621 1329 621 1329 581 1344.5 c 128,-1,34
 541 1360 541 1360 490 1360 c 0,13,14
EndSplineSet
EndChar

StartChar: plusminus
Encoding: 177 177 112
Width: 910
Flags: W
LayerCount: 2
Fore
SplineSet
512 992 m 1,0,-1
 512 726 l 1,1,-1
 765 726 l 1,2,-1
 765 611 l 1,3,-1
 512 611 l 1,4,-1
 512 334 l 1,5,-1
 391 334 l 1,6,-1
 391 611 l 1,7,-1
 138 611 l 1,8,-1
 138 726 l 1,9,-1
 391 726 l 1,10,-1
 391 992 l 1,11,-1
 512 992 l 1,0,-1
765 120 m 1,12,-1
 765 0 l 1,13,-1
 138 0 l 1,14,-1
 138 120 l 1,15,-1
 765 120 l 1,12,-1
EndSplineSet
EndChar

StartChar: acute
Encoding: 180 180 115
Width: 616
Flags: W
LayerCount: 2
Fore
SplineSet
115 1483 m 1,0,-1
 340 1483 l 1,1,-1
 478 1142 l 1,2,-1
 372 1142 l 1,3,-1
 115 1483 l 1,0,-1
EndSplineSet
EndChar

StartChar: paragraph
Encoding: 182 182 116
Width: 918
Flags: W
LayerCount: 2
Fore
SplineSet
326 0 m 1,0,-1
 326 734 l 1,1,2
 192 737 192 737 105.5 813 c 128,-1,3
 19 889 19 889 19 1020 c 0,4,5
 19 1098 19 1098 46.5 1156 c 128,-1,6
 74 1214 74 1214 123.5 1246.5 c 128,-1,7
 173 1279 173 1279 234.5 1294.5 c 128,-1,8
 296 1310 296 1310 372 1310 c 2,9,-1
 855 1310 l 1,10,-1
 855 0 l 1,11,-1
 682 0 l 1,12,-1
 682 734 l 1,13,-1
 514 734 l 1,14,-1
 514 0 l 1,15,-1
 326 0 l 1,0,-1
EndSplineSet
EndChar

StartChar: cedilla
Encoding: 184 184 117
Width: 579
Flags: W
LayerCount: 2
Fore
SplineSet
282 0 m 1,0,-1
 288 -94 l 1,1,2
 393 -113 393 -113 451 -172.5 c 128,-1,3
 509 -232 509 -232 509 -303 c 0,4,5
 509 -379 509 -379 444 -432.5 c 128,-1,6
 379 -486 379 -486 262 -486 c 0,7,8
 214 -486 214 -486 169 -478 c 1,9,-1
 169 -382 l 1,10,11
 205 -389 205 -389 240 -389 c 0,12,13
 309 -389 309 -389 344.5 -360.5 c 128,-1,14
 380 -332 380 -332 380 -290 c 0,15,16
 380 -241 380 -241 335.5 -200.5 c 128,-1,17
 291 -160 291 -160 220 -158 c 1,18,-1
 220 0 l 1,19,-1
 282 0 l 1,0,-1
EndSplineSet
EndChar

StartChar: Eth
Encoding: 208 208 141
Width: 1530
Flags: W
LayerCount: 2
Fore
SplineSet
781 150 m 2,0,1
 849 150 849 150 899.5 156.5 c 128,-1,2
 950 163 950 163 998.5 183 c 128,-1,3
 1047 203 1047 203 1078 237 c 128,-1,4
 1109 271 1109 271 1127.5 327.5 c 128,-1,5
 1146 384 1146 384 1146 462 c 2,6,-1
 1146 971 l 2,7,8
 1146 1049 1146 1049 1127.5 1107 c 128,-1,9
 1109 1165 1109 1165 1077.5 1200.5 c 128,-1,10
 1046 1236 1046 1236 998 1257.5 c 128,-1,11
 950 1279 950 1279 898.5 1287 c 128,-1,12
 847 1295 847 1295 781 1295 c 2,13,-1
 433 1295 l 1,14,-1
 433 809 l 1,15,-1
 680 809 l 1,16,-1
 680 668 l 1,17,-1
 433 668 l 1,18,-1
 433 150 l 1,19,-1
 781 150 l 2,0,1
231 809 m 1,20,-1
 231 1446 l 1,21,-1
 799 1446 l 2,22,23
 945 1446 945 1446 1053 1409.5 c 128,-1,24
 1161 1373 1161 1373 1224 1305.5 c 128,-1,25
 1287 1238 1287 1238 1317 1152 c 128,-1,26
 1347 1066 1347 1066 1347 959 c 2,27,-1
 1347 482 l 2,28,29
 1347 245 1347 245 1210.5 122.5 c 128,-1,30
 1074 0 1074 0 801 0 c 2,31,-1
 231 0 l 1,32,-1
 231 668 l 1,33,-1
 53 668 l 1,34,-1
 53 809 l 1,35,-1
 231 809 l 1,20,-1
EndSplineSet
EndChar

StartChar: multiply
Encoding: 215 215 148
Width: 973
Flags: W
LayerCount: 2
Fore
SplineSet
735 216 m 1,0,-1
 487 458 l 1,1,-1
 239 216 l 1,2,-1
 129 344 l 1,3,-1
 366 576 l 1,4,-1
 129 806 l 1,5,-1
 239 937 l 1,6,-1
 487 694 l 1,7,-1
 735 937 l 1,8,-1
 844 806 l 1,9,-1
 608 576 l 1,10,-1
 844 344 l 1,11,-1
 735 216 l 1,0,-1
EndSplineSet
EndChar

StartChar: Oslash
Encoding: 216 216 149
Width: 1506
Flags: W
LayerCount: 2
Fore
SplineSet
1054 1676 m 1,0,-1
 1158 1638 l 1,1,-1
 1082 1433 l 1,2,3
 1138 1412 1138 1412 1179 1382 c 0,4,5
 1242 1336 1242 1336 1281 1264.5 c 128,-1,6
 1320 1193 1320 1193 1334.5 1116.5 c 128,-1,7
 1349 1040 1349 1040 1349 942 c 2,8,-1
 1349 500 l 2,9,10
 1349 422 1349 422 1338.5 358 c 128,-1,11
 1328 294 1328 294 1303.5 233 c 128,-1,12
 1279 172 1279 172 1236 126.5 c 128,-1,13
 1193 81 1193 81 1131 46.5 c 128,-1,14
 1069 12 1069 12 979 -6 c 128,-1,15
 889 -24 889 -24 775 -24 c 0,16,17
 647 -24 647 -24 550 -4 c 1,18,-1
 479 -195 l 1,19,-1
 376 -157 l 1,20,-1
 444 26 l 1,21,22
 396 44 396 44 358 68 c 0,23,24
 292 110 292 110 252.5 176.5 c 128,-1,25
 213 243 213 243 198 316.5 c 128,-1,26
 183 390 183 390 183 486 c 2,27,-1
 183 955 l 2,28,29
 183 1053 183 1053 197.5 1128 c 128,-1,30
 212 1203 212 1203 252 1272 c 128,-1,31
 292 1341 292 1341 357 1386 c 128,-1,32
 422 1431 422 1431 527.5 1457 c 128,-1,33
 633 1483 633 1483 775 1483 c 0,34,35
 887 1483 887 1483 976 1465 c 1,36,-1
 1054 1676 l 1,0,-1
479 198 m 0,37,38
 490 190 490 190 502 183 c 1,39,-1
 922 1318 l 1,40,41
 858 1332 858 1332 775 1332 c 0,42,43
 576 1332 576 1332 480.5 1255 c 128,-1,44
 385 1178 385 1178 385 992 c 2,45,-1
 385 455 l 2,46,47
 385 270 385 270 479 198 c 0,37,38
1060 1256 m 0,48,49
 1044 1269 1044 1269 1026 1280 c 1,50,-1
 604 143 l 1,51,52
 677 126 677 126 775 126 c 0,53,54
 975 126 975 126 1061.5 197 c 128,-1,55
 1148 268 1148 268 1148 455 c 2,56,-1
 1148 992 l 2,57,58
 1148 1180 1148 1180 1060 1256 c 0,48,49
EndSplineSet
EndChar

StartChar: eth
Encoding: 240 240 173
Width: 1158
Flags: W
LayerCount: 2
Fore
SplineSet
587 121 m 0,0,1
 636 121 636 121 673.5 128 c 128,-1,2
 711 135 711 135 736.5 145 c 128,-1,3
 762 155 762 155 779.5 174 c 128,-1,4
 797 193 797 193 806.5 210 c 128,-1,5
 816 227 816 227 821 255.5 c 128,-1,6
 826 284 826 284 827 304.5 c 128,-1,7
 828 325 828 325 828 359 c 2,8,-1
 828 593 l 2,9,10
 828 657 828 657 805 783 c 1,11,12
 775 804 775 804 706 818.5 c 128,-1,13
 637 833 637 833 587 833 c 0,14,15
 471 833 471 833 404 789.5 c 128,-1,16
 337 746 337 746 337 652 c 2,17,-1
 337 308 l 2,18,19
 337 207 337 207 402.5 164 c 128,-1,20
 468 121 468 121 587 121 c 0,0,1
587 -20 m 0,21,22
 361 -20 361 -20 255.5 69 c 128,-1,23
 150 158 150 158 150 314 c 2,24,-1
 150 646 l 2,25,26
 150 796 150 796 269.5 885.5 c 128,-1,27
 389 975 389 975 587 975 c 0,28,29
 635 975 635 975 698 957 c 128,-1,30
 761 939 761 939 782 921 c 1,31,32
 744 1097 744 1097 606 1220 c 1,33,-1
 391 1078 l 1,34,-1
 323 1162 l 1,35,-1
 514 1288 l 1,36,37
 410 1355 410 1355 243 1407 c 1,38,-1
 317 1515 l 1,39,40
 505 1475 505 1475 646 1375 c 1,41,-1
 794 1473 l 1,42,-1
 863 1389 l 1,43,-1
 733 1303 l 1,44,45
 1010 1041 1010 1041 1010 536 c 2,46,-1
 1010 365 l 2,47,48
 1010 318 1010 318 1007 282 c 128,-1,49
 1004 246 1004 246 993 204 c 128,-1,50
 982 162 982 162 964 131 c 128,-1,51
 946 100 946 100 914 70.5 c 128,-1,52
 882 41 882 41 838.5 22 c 128,-1,53
 795 3 795 3 731 -8.5 c 128,-1,54
 667 -20 667 -20 587 -20 c 0,21,22
EndSplineSet
EndChar

StartChar: divide
Encoding: 247 247 180
Width: 1073
Flags: W
LayerCount: 2
Fore
SplineSet
648 299 m 1,0,-1
 648 90 l 1,1,-1
 431 90 l 1,2,-1
 431 299 l 1,3,-1
 648 299 l 1,0,-1
648 996 m 1,4,-1
 648 787 l 1,5,-1
 431 787 l 1,6,-1
 431 996 l 1,7,-1
 648 996 l 1,4,-1
949 609 m 1,8,-1
 949 472 l 1,9,-1
 124 472 l 1,10,-1
 124 609 l 1,11,-1
 949 609 l 1,8,-1
EndSplineSet
EndChar

StartChar: oslash
Encoding: 248 248 181
Width: 1167
Flags: W
LayerCount: 2
Fore
SplineSet
811 1251 m 1,0,-1
 901 1220 l 1,1,-1
 830 1030 l 1,2,3
 866 1012 866 1012 898 988 c 0,4,5
 1016 896 1016 896 1017 747 c 2,6,-1
 1017 317 l 2,7,8
 1017 241 1017 241 995 181.5 c 128,-1,9
 973 122 973 122 924 75.5 c 128,-1,10
 875 29 875 29 789 4.5 c 128,-1,11
 703 -20 703 -20 583 -20 c 0,12,13
 506 -20 506 -20 444 -10 c 1,14,-1
 363 -226 l 1,15,-1
 271 -195 l 1,16,-1
 349 15 l 1,17,18
 292 36 292 36 254 70 c 0,19,20
 150 160 150 160 150 317 c 2,21,-1
 150 747 l 2,22,23
 150 897 150 897 268 988.5 c 128,-1,24
 386 1080 386 1080 583 1080 c 0,25,26
 669 1080 669 1080 741 1062 c 1,27,-1
 811 1251 l 1,0,-1
829 301 m 2,28,-1
 829 763 l 2,29,30
 829 843 829 843 777 886 c 1,31,-1
 495 128 l 1,32,33
 534 121 534 121 583 121 c 0,34,35
 695 121 695 121 762 164.5 c 128,-1,36
 829 208 829 208 829 301 c 2,28,-1
338 301 m 2,37,38
 338 207 338 207 404 162 c 1,39,-1
 690 926 l 1,40,41
 643 938 643 938 583 938 c 0,42,43
 338 938 338 938 338 763 c 2,44,-1
 338 301 l 2,37,38
EndSplineSet
EndChar

StartChar: OE
Encoding: 338 338 267
Width: 1505
Flags: W
LayerCount: 2
Fore
SplineSet
762 0 m 2,0,1
 620 0 620 0 515 25 c 128,-1,2
 410 50 410 50 344.5 92.5 c 128,-1,3
 279 135 279 135 239.5 201 c 128,-1,4
 200 267 200 267 185 340.5 c 128,-1,5
 170 414 170 414 170 510 c 2,6,-1
 170 918 l 2,7,8
 170 1016 170 1016 184.5 1091 c 128,-1,9
 199 1166 199 1166 239 1235 c 128,-1,10
 279 1304 279 1304 344 1349 c 128,-1,11
 409 1394 409 1394 514.5 1420 c 128,-1,12
 620 1446 620 1446 762 1446 c 2,13,-1
 1377 1446 l 1,14,-1
 1377 1296 l 1,15,-1
 963 1296 l 1,16,-1
 963 814 l 1,17,-1
 1316 814 l 1,18,-1
 1316 664 l 1,19,-1
 963 664 l 1,20,-1
 963 150 l 1,21,-1
 1386 150 l 1,22,-1
 1386 0 l 1,23,-1
 762 0 l 2,0,1
762 150 m 1,24,-1
 762 1295 l 1,25,26
 563 1295 563 1295 467.5 1218 c 128,-1,27
 372 1141 372 1141 372 955 c 2,28,-1
 372 479 l 2,29,30
 372 294 372 294 466 222 c 128,-1,31
 560 150 560 150 762 150 c 1,24,-1
EndSplineSet
EndChar

StartChar: Ydieresis
Encoding: 376 376 301
Width: 1093
Flags: W
LayerCount: 2
Fore
SplineSet
0 1459 m 1,0,-1
 327 1459 l 1,1,-1
 545 833 l 1,2,3
 583 918 583 918 663.5 1146 c 128,-1,4
 744 1374 744 1374 781 1459 c 1,5,-1
 1093 1459 l 1,6,-1
 624 504 l 1,7,-1
 624 0 l 1,8,-1
 313 0 l 1,9,-1
 313 504 l 1,10,-1
 0 1459 l 1,0,-1
184 1596 m 1,11,-1
 184 1826 l 1,12,-1
 450 1826 l 1,13,-1
 450 1596 l 1,14,-1
 184 1596 l 1,11,-1
643 1596 m 1,15,-1
 643 1826 l 1,16,-1
 910 1826 l 1,17,-1
 910 1596 l 1,18,-1
 643 1596 l 1,15,-1
EndSplineSet
EndChar

StartChar: florin
Encoding: 402 402 308
Width: 890
Flags: W
LayerCount: 2
Fore
SplineSet
710 1334 m 1,0,1
 680 1336 680 1336 668 1336 c 0,2,3
 637 1336 637 1336 613.5 1330.5 c 128,-1,4
 590 1325 590 1325 574.5 1317 c 128,-1,5
 559 1309 559 1309 548.5 1295 c 128,-1,6
 538 1281 538 1281 532.5 1269.5 c 128,-1,7
 527 1258 527 1258 524.5 1238.5 c 128,-1,8
 522 1219 522 1219 521.5 1208 c 128,-1,9
 521 1197 521 1197 521 1177 c 2,10,-1
 521 858 l 1,11,-1
 650 858 l 1,12,-1
 650 727 l 1,13,-1
 521 727 l 1,14,-1
 521 91 l 2,15,16
 521 33 521 33 516.5 -5.5 c 128,-1,17
 512 -44 512 -44 496 -82 c 128,-1,18
 480 -120 480 -120 451.5 -142 c 128,-1,19
 423 -164 423 -164 373.5 -177.5 c 128,-1,20
 324 -191 324 -191 253 -191 c 0,21,22
 206 -191 206 -191 141 -183 c 1,23,-1
 141 -59 l 1,24,25
 176 -62 176 -62 201 -62 c 0,26,27
 233 -62 233 -62 256.5 -57.5 c 128,-1,28
 280 -53 280 -53 294 -43 c 128,-1,29
 308 -33 308 -33 316.5 -24 c 128,-1,30
 325 -15 325 -15 328.5 2.5 c 128,-1,31
 332 20 332 20 332.5 31 c 128,-1,32
 333 42 333 42 333 63 c 2,33,-1
 333 727 l 1,34,-1
 216 727 l 1,35,-1
 216 858 l 1,36,-1
 333 858 l 1,37,-1
 333 1155 l 2,38,39
 333 1212 333 1212 336.5 1252 c 128,-1,40
 340 1292 340 1292 353.5 1335.5 c 128,-1,41
 367 1379 367 1379 390.5 1405 c 128,-1,42
 414 1431 414 1431 457 1448.5 c 128,-1,43
 500 1466 500 1466 560 1466 c 0,44,45
 635 1466 635 1466 710 1458 c 1,46,-1
 710 1334 l 1,0,1
EndSplineSet
EndChar

StartChar: circumflex
Encoding: 710 710 352
Width: 901
Flags: W
LayerCount: 2
Fore
SplineSet
381 1483 m 1,0,-1
 531 1483 l 1,1,-1
 737 1217 l 1,2,-1
 581 1217 l 1,3,-1
 457 1391 l 1,4,-1
 325 1217 l 1,5,-1
 164 1217 l 1,6,-1
 381 1483 l 1,0,-1
EndSplineSet
EndChar

StartChar: caron
Encoding: 711 711 353
Width: 901
Flags: W
LayerCount: 2
Fore
SplineSet
520 1217 m 1,0,-1
 370 1217 l 1,1,-1
 164 1483 l 1,2,-1
 320 1483 l 1,3,-1
 444 1309 l 1,4,-1
 576 1483 l 1,5,-1
 737 1483 l 1,6,-1
 520 1217 l 1,0,-1
EndSplineSet
EndChar

StartChar: breve
Encoding: 728 728 354
Width: 677
Flags: W
LayerCount: 2
Fore
SplineSet
112 1483 m 1,0,-1
 217 1483 l 1,1,2
 217 1433 217 1433 251.5 1400 c 128,-1,3
 286 1367 286 1367 338 1367 c 0,4,5
 393 1367 393 1367 426 1399 c 128,-1,6
 459 1431 459 1431 459 1483 c 1,7,-1
 565 1483 l 1,8,9
 565 1394 565 1394 502.5 1332.5 c 128,-1,10
 440 1271 440 1271 338 1271 c 0,11,12
 237 1271 237 1271 174.5 1332.5 c 128,-1,13
 112 1394 112 1394 112 1483 c 1,0,-1
EndSplineSet
EndChar

StartChar: dotaccent
Encoding: 729 729 355
Width: 576
Flags: W
LayerCount: 2
Fore
SplineSet
161 1483 m 1,0,-1
 415 1483 l 1,1,-1
 415 1242 l 1,2,-1
 161 1242 l 1,3,-1
 161 1483 l 1,0,-1
EndSplineSet
EndChar

StartChar: ring
Encoding: 730 730 356
Width: 627
Flags: W
LayerCount: 2
Fore
SplineSet
314 1192 m 0,0,1
 422 1192 422 1192 422 1304 c 0,2,3
 422 1418 422 1418 314 1418 c 0,4,5
 266 1418 266 1418 235.5 1392 c 128,-1,6
 205 1366 205 1366 205 1306 c 0,7,8
 205 1192 205 1192 314 1192 c 0,0,1
314 1127 m 128,-1,10
 232 1127 232 1127 175.5 1172.5 c 128,-1,11
 119 1218 119 1218 119 1305 c 128,-1,12
 119 1392 119 1392 175.5 1437.5 c 128,-1,13
 232 1483 232 1483 314 1483 c 128,-1,14
 396 1483 396 1483 452 1437.5 c 128,-1,15
 508 1392 508 1392 508 1305 c 128,-1,16
 508 1218 508 1218 452 1172.5 c 128,-1,9
 396 1127 396 1127 314 1127 c 128,-1,10
EndSplineSet
EndChar

StartChar: hungarumlaut
Encoding: 733 733 359
Width: 986
Flags: W
LayerCount: 2
Fore
SplineSet
343 1483 m 1,0,-1
 554 1483 l 1,1,-1
 335 1008 l 1,2,-1
 237 1008 l 1,3,-1
 343 1483 l 1,0,-1
707 1483 m 1,4,-1
 917 1483 l 1,5,-1
 601 1008 l 1,6,-1
 478 1008 l 1,7,-1
 707 1483 l 1,4,-1
EndSplineSet
EndChar

StartChar: endash
Encoding: 8211 8211 385
Width: 539
Flags: W
LayerCount: 2
Fore
SplineSet
2 732 m 1,0,-1
 535 732 l 1,1,-1
 535 606 l 1,2,-1
 2 606 l 1,3,-1
 2 732 l 1,0,-1
EndSplineSet
EndChar

StartChar: emdash
Encoding: 8212 8212 386
Width: 1101
Flags: W
LayerCount: 2
Fore
SplineSet
2 548 m 1,0,-1
 1098 548 l 1,1,-1
 1098 402 l 1,2,-1
 2 402 l 1,3,-1
 2 548 l 1,0,-1
EndSplineSet
EndChar

StartChar: dagger
Encoding: 8224 8224 393
Width: 890
Flags: W
LayerCount: 2
Fore
SplineSet
348 1446 m 1,0,-1
 536 1446 l 1,1,-1
 536 1060 l 1,2,-1
 802 1060 l 1,3,-1
 802 931 l 1,4,-1
 536 931 l 1,5,-1
 536 0 l 1,6,-1
 348 0 l 1,7,-1
 348 931 l 1,8,-1
 88 931 l 1,9,-1
 88 1060 l 1,10,-1
 348 1060 l 1,11,-1
 348 1446 l 1,0,-1
EndSplineSet
EndChar

StartChar: daggerdbl
Encoding: 8225 8225 394
Width: 938
Flags: W
LayerCount: 2
Fore
SplineSet
372 0 m 1,0,-1
 372 409 l 1,1,-1
 112 409 l 1,2,-1
 112 538 l 1,3,-1
 372 538 l 1,4,-1
 372 931 l 1,5,-1
 112 931 l 1,6,-1
 112 1060 l 1,7,-1
 372 1060 l 1,8,-1
 372 1446 l 1,9,-1
 560 1446 l 1,10,-1
 560 1060 l 1,11,-1
 826 1060 l 1,12,-1
 826 931 l 1,13,-1
 560 931 l 1,14,-1
 560 538 l 1,15,-1
 826 538 l 1,16,-1
 826 409 l 1,17,-1
 560 409 l 1,18,-1
 560 0 l 1,19,-1
 372 0 l 1,0,-1
EndSplineSet
EndChar

StartChar: bullet
Encoding: 8226 8226 395
Width: 975
Flags: W
LayerCount: 2
Fore
SplineSet
180 599 m 128,-1,1
 180 751 180 751 251.5 826 c 128,-1,2
 323 901 323 901 487 901 c 0,3,4
 652 901 652 901 723.5 826 c 128,-1,5
 795 751 795 751 795 599 c 0,6,7
 795 448 795 448 723 373 c 128,-1,8
 651 298 651 298 486 298 c 0,9,10
 322 298 322 298 251 372.5 c 128,-1,0
 180 447 180 447 180 599 c 128,-1,1
EndSplineSet
EndChar

StartChar: ellipsis
Encoding: 8230 8230 396
Width: 1427
Flags: W
LayerCount: 2
Fore
SplineSet
112 255 m 1,0,-1
 365 255 l 1,1,-1
 365 0 l 1,2,-1
 112 0 l 1,3,-1
 112 255 l 1,0,-1
944 255 m 1,4,-1
 1197 255 l 1,5,-1
 1197 0 l 1,6,-1
 944 0 l 1,7,-1
 944 255 l 1,4,-1
1776 255 m 1,8,-1
 2029 255 l 1,9,-1
 2029 0 l 1,10,-1
 1776 0 l 1,11,-1
 1776 255 l 1,8,-1
EndSplineSet
EndChar

StartChar: perthousand
Encoding: 8240 8240 397
Width: 2886
Flags: W
LayerCount: 2
Fore
SplineSet
2092 360 m 2,0,-1
 2092 413 l 2,1,2
 2092 599 2092 599 2158.5 691.5 c 128,-1,3
 2225 784 2225 784 2390 784 c 0,4,5
 2475 784 2475 784 2534 759.5 c 128,-1,6
 2593 735 2593 735 2627 685.5 c 128,-1,7
 2661 636 2661 636 2676 570.5 c 128,-1,8
 2691 505 2691 505 2692 414 c 1,9,-1
 2692 360 l 2,10,11
 2692 176 2692 176 2623 78.5 c 128,-1,12
 2554 -19 2554 -19 2390 -19 c 0,13,14
 2227 -19 2227 -19 2159.5 78.5 c 128,-1,15
 2092 176 2092 176 2092 360 c 2,0,-1
2235 343 m 2,16,17
 2235 296 2235 296 2238 263 c 128,-1,18
 2241 230 2241 230 2250 196.5 c 128,-1,19
 2259 163 2259 163 2275.5 142.5 c 128,-1,20
 2292 122 2292 122 2321 109.5 c 128,-1,21
 2350 97 2350 97 2390 97 c 128,-1,22
 2430 97 2430 97 2459 109.5 c 128,-1,23
 2488 122 2488 122 2505 142.5 c 128,-1,24
 2522 163 2522 163 2531.5 196 c 128,-1,25
 2541 229 2541 229 2544 262.5 c 128,-1,26
 2547 296 2547 296 2547 343 c 2,27,-1
 2547 436 l 2,28,29
 2547 483 2547 483 2544.5 513.5 c 128,-1,30
 2542 544 2542 544 2533 576.5 c 128,-1,31
 2524 609 2524 609 2507.5 627 c 128,-1,32
 2491 645 2491 645 2461.5 656.5 c 128,-1,33
 2432 668 2432 668 2390 668 c 128,-1,34
 2348 668 2348 668 2319 656.5 c 128,-1,35
 2290 645 2290 645 2273.5 627 c 128,-1,36
 2257 609 2257 609 2248.5 577 c 128,-1,37
 2240 545 2240 545 2237.5 515 c 128,-1,38
 2235 485 2235 485 2235 438 c 2,39,-1
 2235 343 l 2,16,17
1456 438 m 2,40,-1
 1456 343 l 2,41,42
 1456 296 1456 296 1459 263 c 128,-1,43
 1462 230 1462 230 1471 196.5 c 128,-1,44
 1480 163 1480 163 1496.5 142.5 c 128,-1,45
 1513 122 1513 122 1542 109.5 c 128,-1,46
 1571 97 1571 97 1611 97 c 128,-1,47
 1651 97 1651 97 1680 109.5 c 128,-1,48
 1709 122 1709 122 1726 142.5 c 128,-1,49
 1743 163 1743 163 1752.5 196 c 128,-1,50
 1762 229 1762 229 1765 262.5 c 128,-1,51
 1768 296 1768 296 1768 343 c 2,52,-1
 1768 436 l 2,53,54
 1768 483 1768 483 1765.5 513.5 c 128,-1,55
 1763 544 1763 544 1754 576.5 c 128,-1,56
 1745 609 1745 609 1728.5 627 c 128,-1,57
 1712 645 1712 645 1682.5 656.5 c 128,-1,58
 1653 668 1653 668 1611 668 c 128,-1,59
 1569 668 1569 668 1540 656.5 c 128,-1,60
 1511 645 1511 645 1494.5 627 c 128,-1,61
 1478 609 1478 609 1469.5 577 c 128,-1,62
 1461 545 1461 545 1458.5 515 c 128,-1,63
 1456 485 1456 485 1456 438 c 2,40,-1
1380.5 78.5 m 128,-1,65
 1313 176 1313 176 1313 360 c 2,66,-1
 1313 413 l 2,67,68
 1313 599 1313 599 1379.5 691.5 c 128,-1,69
 1446 784 1446 784 1611 784 c 0,70,71
 1696 784 1696 784 1755 759.5 c 128,-1,72
 1814 735 1814 735 1848 685.5 c 128,-1,73
 1882 636 1882 636 1897 570.5 c 128,-1,74
 1912 505 1912 505 1913 414 c 1,75,-1
 1913 360 l 2,76,77
 1913 176 1913 176 1844 78.5 c 128,-1,78
 1775 -19 1775 -19 1611 -19 c 0,79,64
 1448 -19 1448 -19 1380.5 78.5 c 128,-1,65
705 0 m 1,80,-1
 1248 1446 l 1,81,-1
 1397 1446 l 1,82,-1
 859 0 l 1,83,-1
 705 0 l 1,80,-1
276.5 755.5 m 128,-1,85
 209 853 209 853 209 1037 c 2,86,-1
 209 1090 l 2,87,88
 209 1276 209 1276 275.5 1368.5 c 128,-1,89
 342 1461 342 1461 507 1461 c 0,90,91
 592 1461 592 1461 651 1436.5 c 128,-1,92
 710 1412 710 1412 744 1362.5 c 128,-1,93
 778 1313 778 1313 793 1247.5 c 128,-1,94
 808 1182 808 1182 809 1091 c 1,95,-1
 809 1037 l 2,96,97
 809 853 809 853 740 755.5 c 128,-1,98
 671 658 671 658 507 658 c 0,99,84
 344 658 344 658 276.5 755.5 c 128,-1,85
352 1115 m 2,100,-1
 352 1020 l 2,101,102
 352 973 352 973 355 940 c 128,-1,103
 358 907 358 907 367 873.5 c 128,-1,104
 376 840 376 840 392.5 819.5 c 128,-1,105
 409 799 409 799 438 786.5 c 128,-1,106
 467 774 467 774 507 774 c 128,-1,107
 547 774 547 774 576 786.5 c 128,-1,108
 605 799 605 799 622 819.5 c 128,-1,109
 639 840 639 840 648.5 873 c 128,-1,110
 658 906 658 906 661 939.5 c 128,-1,111
 664 973 664 973 664 1020 c 2,112,-1
 664 1113 l 2,113,114
 664 1160 664 1160 661.5 1190.5 c 128,-1,115
 659 1221 659 1221 650 1253.5 c 128,-1,116
 641 1286 641 1286 624.5 1304 c 128,-1,117
 608 1322 608 1322 578.5 1333.5 c 128,-1,118
 549 1345 549 1345 507 1345 c 128,-1,119
 465 1345 465 1345 436 1333.5 c 128,-1,120
 407 1322 407 1322 390.5 1304 c 128,-1,121
 374 1286 374 1286 365.5 1254 c 128,-1,122
 357 1222 357 1222 354.5 1192 c 128,-1,123
 352 1162 352 1162 352 1115 c 2,100,-1
EndSplineSet
EndChar

StartChar: fraction
Encoding: 8260 8260 400
Width: 979
Flags: W
LayerCount: 2
Fore
SplineSet
665 1446 m 1,0,-1
 858 1446 l 1,1,-1
 320 0 l 1,2,-1
 125 0 l 1,3,-1
 665 1446 l 1,0,-1
EndSplineSet
EndChar

StartChar: trademark
Encoding: 8482 8482 402
Width: 1843
Flags: W
LayerCount: 2
Fore
SplineSet
692 1446 m 1,0,-1
 692 1332 l 1,1,-1
 480 1332 l 1,2,-1
 480 766 l 1,3,-1
 345 766 l 1,4,-1
 345 1332 l 1,5,-1
 133 1332 l 1,6,-1
 133 1446 l 1,7,-1
 692 1446 l 1,0,-1
1043 1446 m 1,8,-1
 1227 1033 l 1,9,-1
 1413 1446 l 1,10,-1
 1609 1446 l 1,11,-1
 1609 766 l 1,12,-1
 1482 766 l 1,13,-1
 1482 1329 l 1,14,-1
 1310 931 l 1,15,-1
 1149 931 l 1,16,-1
 970 1329 l 1,17,-1
 970 766 l 1,18,-1
 845 766 l 1,19,-1
 845 1446 l 1,20,-1
 1043 1446 l 1,8,-1
EndSplineSet
EndChar

StartChar: minus
Encoding: 8722 8722 404
Width: 911
Flags: W
LayerCount: 2
Fore
SplineSet
769 609 m 1,0,-1
 769 439 l 1,1,-1
 142 439 l 1,2,-1
 142 609 l 1,3,-1
 769 609 l 1,0,-1
EndSplineSet
EndChar

StartChar: uniFB01
Encoding: 64257 64257 414
Width: 1248
Flags: W
LayerCount: 2
Fore
SplineSet
557 1446 m 2,0,-1
 663 1446 l 1,1,-1
 663 1313 l 1,2,-1
 592 1313 l 2,3,4
 553 1313 553 1313 526 1306 c 128,-1,5
 499 1299 499 1299 484 1288.5 c 128,-1,6
 469 1278 469 1278 461.5 1259 c 128,-1,7
 454 1240 454 1240 452.5 1223.5 c 128,-1,8
 451 1207 451 1207 451 1180 c 2,9,-1
 451 1060 l 1,10,-1
 864 1060 l 1,11,-1
 935 1060 l 1,12,-1
 1051 1060 l 1,13,-1
 1051 0 l 1,14,-1
 864 0 l 1,15,-1
 864 943 l 1,16,-1
 451 943 l 1,17,-1
 451 0 l 1,18,-1
 263 0 l 1,19,-1
 263 943 l 1,20,-1
 101 943 l 1,21,-1
 101 1060 l 1,22,-1
 263 1060 l 1,23,-1
 263 1149 l 2,24,25
 263 1302 263 1302 330.5 1374 c 128,-1,26
 398 1446 398 1446 557 1446 c 2,0,-1
853 1233 m 1,27,-1
 853 1434 l 1,28,-1
 1058 1434 l 1,29,-1
 1058 1233 l 1,30,-1
 853 1233 l 1,27,-1
EndSplineSet
EndChar

StartChar: uniFB02
Encoding: 64258 64258 415
Width: 1377
Flags: W
LayerCount: 2
Fore
SplineSet
1086 1446 m 1,0,-1
 1086 360 l 2,1,2
 1086 299 1086 299 1092 264.5 c 128,-1,3
 1098 230 1098 230 1118 200 c 128,-1,4
 1138 170 1138 170 1180 157.5 c 128,-1,5
 1222 145 1222 145 1291 145 c 2,6,-1
 1320 145 l 1,7,-1
 1320 0 l 1,8,-1
 1248 0 l 2,9,10
 1066 0 1066 0 982 80 c 128,-1,11
 898 160 898 160 898 362 c 2,12,-1
 898 1313 l 1,13,-1
 622 1313 l 2,14,15
 574 1313 574 1313 539 1298.5 c 128,-1,16
 504 1284 504 1284 486 1259 c 128,-1,17
 468 1234 468 1234 459.5 1206.5 c 128,-1,18
 451 1179 451 1179 451 1148 c 2,19,-1
 451 1060 l 1,20,-1
 666 1060 l 1,21,-1
 666 943 l 1,22,-1
 451 943 l 1,23,-1
 451 0 l 1,24,-1
 263 0 l 1,25,-1
 263 943 l 1,26,-1
 101 943 l 1,27,-1
 101 1060 l 1,28,-1
 263 1060 l 1,29,30
 263 1163 263 1163 297.5 1248.5 c 128,-1,31
 332 1334 332 1334 407.5 1390 c 128,-1,32
 483 1446 483 1446 587 1446 c 2,33,-1
 1086 1446 l 1,0,-1
EndSplineSet
EndChar

StartChar: periodcentered
Encoding: 183 183 417
Width: 412
Flags: W
LayerCount: 2
Fore
SplineSet
108 1483 m 1,0,-1
 313 1483 l 1,1,-1
 313 1277 l 1,2,-1
 108 1277 l 1,3,-1
 108 1483 l 1,0,-1
EndSplineSet
EndChar

